<svg width="664" height="294" viewBox="0 0 664 294" fill="none" xmlns="http://www.w3.org/2000/svg">
<g clip-path="url(#clip0_4875_1366)">
<path d="M510.018 90.6761V90.8062C510.388 93.1288 510.928 95.4385 511.474 97.7221C512.021 100.006 512.639 102.276 513.328 104.553C514.018 106.83 514.772 109.029 515.605 111.228C516.437 113.428 517.341 115.581 518.323 117.734C519.306 119.888 520.353 121.937 521.491 123.974C522.629 126.01 523.832 127.994 525.133 129.927C526.434 131.859 527.806 133.739 529.27 135.548C530.733 137.357 532.281 139.12 533.914 140.798C535.546 142.477 537.283 144.103 539.117 145.632C540.95 147.186 542.86 148.645 544.841 150.004C546.844 151.383 548.917 152.661 551.059 153.836C565.498 161.748 582.448 165.404 599.086 165.345C616.647 165.293 633.213 157.219 646.729 146.647C669.429 128.892 679.822 103.109 679.751 75.5106C679.673 43.3255 707.719 15.6555 740.513 13.0531C742.035 12.9316 743.553 12.86 745.066 12.8384C761.194 12.6039 776.854 18.2647 789.106 28.7585C794.978 33.8413 799.85 39.9751 803.474 46.8452C807.74 54.9712 808.677 63.6111 811.506 72.2186C819.819 97.2211 843.611 114.573 870.805 115.776C890.604 116.654 908.068 125.418 915.196 144.259C923.827 167.082 911.567 192.592 887.82 201.232C881.914 203.375 875.64 204.323 869.365 204.023C863.089 203.723 856.935 202.179 851.26 199.482C843.631 195.793 837.679 189.971 833.308 182.957C829.048 176.113 826.499 168.553 821.601 162.027C813.796 151.618 802.68 144.129 789.977 140.291C774.615 135.646 759.453 135.834 744.546 142.073C735.843 145.609 727.864 150.714 721.007 157.135C708.818 168.846 702.516 186.002 702.542 202.306C702.542 210.536 705.143 217.667 707.01 225.532C708.829 233.114 709.511 240.924 709.033 248.707C707.082 279.864 686.385 308.21 656.498 320.442C655.406 320.884 654.307 321.314 653.201 321.743C609.083 337.793 560.314 316.467 544.282 274.08C541.03 265.525 539.631 256.559 535.826 248.16C532.937 241.767 529.313 235.733 525.029 230.178C517.657 220.736 508.286 213.046 497.588 207.66C484.027 200.803 468.592 197.192 453.236 196.802C437.242 196.392 421.769 201.831 405.814 202.007C348.063 202.696 301.233 158.078 301.233 102.302C301.233 46.5264 348.115 0.737227 405.885 0.00855554C438.12 -0.401322 469.087 13.9379 488.762 38.3288C490.496 40.4628 492.12 42.664 493.633 44.9324C495.149 47.1835 496.567 49.4866 497.881 51.8613C499.195 54.236 500.385 56.6172 501.484 59.0634C502.583 61.5097 503.578 63.995 504.476 66.5128C505.374 69.0306 506.174 71.6005 506.87 74.1834C507.565 76.7663 508.17 79.3882 508.691 82.0556C508.964 83.487 509.217 84.9508 509.439 86.3951C509.66 87.8395 509.783 89.2578 510.018 90.6761Z" fill="url(#paint0_linear_4875_1366)"/>
<path d="M181.003 493.56L180.892 493.514C178.993 492.746 177.133 491.842 175.292 490.912C173.451 489.981 171.63 489.025 169.842 487.997C168.053 486.969 166.316 485.896 164.638 484.744C162.96 483.592 161.269 482.421 159.65 481.172C158.03 479.923 156.475 478.622 154.96 477.269C153.445 475.915 151.994 474.484 150.602 473.007C149.21 471.53 147.883 469.989 146.622 468.388C145.36 466.788 144.17 465.135 143.057 463.411C141.945 461.687 140.904 459.898 139.955 458.063C139.005 456.228 138.127 454.29 137.353 452.338C136.579 450.386 135.89 448.35 135.304 446.294C131.402 432.462 131.577 417.316 134.869 403.159C138.342 388.195 148.436 375.684 160.066 366.237C179.578 350.369 203.566 346.544 227.059 351.983C254.435 358.326 283.424 339.836 292.042 312.413C292.439 311.145 292.797 309.856 293.116 308.562C296.461 294.874 294.697 280.436 288.153 267.958C284.972 261.968 280.701 256.624 275.561 252.2C269.479 246.996 262.305 244.517 255.56 240.418C235.905 228.467 225.778 204.824 230.051 181.435C233.16 164.402 229.108 147.825 214.441 138.085C196.704 126.29 172.606 131.755 160.625 150.29C157.649 154.901 155.618 160.057 154.65 165.459C153.682 170.862 153.796 176.402 154.986 181.76C156.672 188.81 160.337 195.232 165.549 200.269C170.544 205.234 176.482 208.877 181.081 214.303C188.418 223.106 192.748 234.026 193.439 245.467C194.395 259.461 191.279 272.33 183.032 283.806C178.326 290.527 172.426 296.327 165.627 300.917C153.308 309.011 137.457 311.028 123.59 307.833C116.585 306.22 111.011 302.628 104.689 299.499C98.5896 296.474 92.0752 294.372 85.3586 293.26C58.4768 288.823 30.3137 300.943 14.0727 324.014C13.4873 324.853 12.9084 325.705 12.3491 326.57C-9.9083 361.013 -1.25769 406.692 31.686 428.604C38.3333 433.034 45.6896 435.982 52.0897 440.874C56.9681 444.577 61.3971 448.836 65.2867 453.567C71.8851 461.688 76.6051 471.168 79.1081 481.328C82.2273 494.418 82.4294 508.034 79.7 521.21C76.9292 534.873 69.2933 547.026 66.0022 560.565C54.119 609.62 82.9651 658.155 130.433 669.039C177.9 679.924 226.005 648.916 237.888 599.874C244.516 572.503 238.35 543.344 221.426 521.802C219.952 519.92 218.395 518.107 216.756 516.363C215.117 514.62 213.426 512.965 211.683 511.399C209.94 509.831 208.125 508.341 206.259 506.93C204.392 505.518 202.473 504.184 200.502 502.928C198.532 501.673 196.509 500.495 194.441 499.396C192.372 498.296 190.252 497.262 188.099 496.312C186.935 495.798 185.738 495.297 184.548 494.828C183.357 494.36 182.167 494.035 181.003 493.56Z" fill="url(#paint1_linear_4875_1366)"/>
</g>
<defs>
<linearGradient id="paint0_linear_4875_1366" x1="329.131" y1="101.862" x2="882.473" y2="220.078" gradientUnits="userSpaceOnUse">
<stop stop-color="#9E005D"/>
<stop offset="0.42" stop-color="#F51B67"/>
<stop offset="0.53" stop-color="#F53849"/>
<stop offset="0.73" stop-color="#F46917"/>
<stop offset="0.83" stop-color="#F47C03"/>
<stop offset="0.86" stop-color="#F48106"/>
<stop offset="0.9" stop-color="#F38E11"/>
<stop offset="0.94" stop-color="#F3A422"/>
<stop offset="0.98" stop-color="#F2C339"/>
<stop offset="1" stop-color="#F1D446"/>
</linearGradient>
<linearGradient id="paint1_linear_4875_1366" x1="141.507" y1="643.779" x2="149.65" y2="150.856" gradientUnits="userSpaceOnUse">
<stop stop-color="#9E005D"/>
<stop offset="0.42" stop-color="#F51B67"/>
<stop offset="0.53" stop-color="#F53849"/>
<stop offset="0.73" stop-color="#F46917"/>
<stop offset="0.83" stop-color="#F47C03"/>
<stop offset="0.86" stop-color="#F48106"/>
<stop offset="0.9" stop-color="#F38E11"/>
<stop offset="0.94" stop-color="#F3A422"/>
<stop offset="0.98" stop-color="#F2C339"/>
<stop offset="1" stop-color="#F1D446"/>
</linearGradient>
<clipPath id="clip0_4875_1366">
<rect width="664" height="294" fill="white"/>
</clipPath>
</defs>
</svg>
