<svg width="919" height="1199" viewBox="0 0 919 1199" fill="none" xmlns="http://www.w3.org/2000/svg">
<path d="M201.609 384.371L201.759 384.417C204.419 385.295 207.157 385.998 209.876 386.674C212.595 387.351 215.359 387.976 218.123 388.477C220.888 388.978 223.652 389.427 226.436 389.778C229.219 390.129 231.984 390.37 234.774 390.52C237.564 390.669 240.322 390.721 243.093 390.663C245.864 390.604 248.615 390.448 251.366 390.168C254.117 389.888 256.843 389.518 259.555 388.997C262.267 388.477 264.96 387.859 267.614 387.104C270.267 386.349 272.928 385.464 275.516 384.449C280.796 382.383 285.855 379.794 290.619 376.72C306.756 366.311 319.712 351.009 328.564 334.034C337.917 316.097 338.197 294.881 334.21 275.402C327.504 242.684 305.689 218.15 276.323 203.316C242.098 186.004 227.75 142.505 242.54 107.678C243.19 106.058 243.971 104.471 244.764 102.903C251.094 90.4855 260.744 80.0688 272.641 72.8117C284.537 65.5546 298.214 61.7418 312.148 61.7977C323.062 61.8432 332.727 65.5777 343.368 67.3083C374.373 72.3634 405.542 57.5037 421.379 30.4648C432.918 10.7712 451.578 -2.27335 475.397 0.65435C485.908 1.93627 495.788 6.35897 503.747 13.3449C511.706 20.3308 517.375 29.5551 520.012 39.8133C522.648 50.0715 522.131 60.8867 518.528 70.8464C514.925 80.8061 508.403 89.4474 499.813 95.6419C491.813 101.419 482.447 104.327 472.658 104.991C463.097 105.642 453.705 104.139 444.17 105.59C428.988 107.958 414.964 115.126 404.15 126.044C390.985 139.18 383.07 154.729 381.717 173.278C380.93 184.058 381.86 195.053 385.112 205.391C390.966 224.116 405.867 239.828 423.194 248.617C431.942 253.054 440.898 254.291 450.258 256.62C459.28 258.863 467.934 262.388 475.956 267.088C508.015 285.884 527.027 322.311 524.009 359.369C523.896 360.718 523.76 362.064 523.599 363.409C520.434 389.15 507.177 412.579 486.744 428.544C466.311 444.509 440.375 451.701 414.641 448.54C403.811 447.239 393.541 443.804 382.575 443.16C374.26 442.648 365.913 443.085 357.697 444.461C343.827 446.824 330.647 452.208 319.088 460.231C304.544 470.342 292.421 484.108 283.809 499.534C274.814 515.604 272.303 534.302 263.978 550.658C233.824 609.902 161.368 633.466 102.14 603.305C42.9133 573.143 19.3746 500.633 49.5281 441.383C57.9414 425.001 69.9773 410.752 84.7211 399.72C99.4649 388.688 116.529 381.163 134.616 377.716C137.803 377.117 141.012 376.653 144.242 376.323C147.442 375.998 150.662 375.803 153.875 375.744C157.088 375.686 160.268 375.744 163.455 375.966C166.643 376.187 169.81 376.493 172.965 376.948C176.119 377.403 179.274 377.969 182.396 378.653C185.518 379.336 188.646 380.149 191.729 381.06C193.394 381.548 195.085 382.081 196.744 382.641C198.403 383.2 199.944 383.825 201.609 384.371Z" fill="url(#paint0_linear_4874_1362)"/>
<path d="M510.558 618.184V618.314C510.929 620.637 511.469 622.946 512.015 625.23C512.562 627.513 513.179 629.784 513.869 632.061C514.558 634.338 515.313 636.537 516.145 638.736C516.978 640.935 517.882 643.089 518.864 645.242C519.846 647.396 520.893 649.445 522.032 651.481C523.17 653.518 524.373 655.502 525.674 657.434C526.975 659.367 528.347 661.247 529.811 663.056C531.274 664.864 532.822 666.627 534.455 668.306C536.087 669.985 537.824 671.611 539.658 673.14C541.49 674.694 543.401 676.153 545.382 677.512C547.385 678.891 549.458 680.169 551.6 681.344C566.039 689.255 582.989 692.912 599.627 692.853C617.188 692.801 633.754 684.727 647.27 674.155C669.97 656.4 680.363 630.617 680.292 603.018C680.214 570.833 708.26 543.163 741.054 540.561C742.576 540.439 744.093 540.368 745.607 540.346C761.735 540.112 777.395 545.772 789.647 556.266C795.519 561.349 800.391 567.483 804.014 574.353C808.281 582.479 809.218 591.119 812.047 599.726C820.36 624.729 844.152 642.08 871.346 643.284C891.145 644.162 908.608 652.926 915.737 671.767C924.368 694.59 912.108 720.1 888.361 728.74C882.454 730.883 876.181 731.831 869.905 731.531C863.63 731.23 857.476 729.687 851.801 726.99C844.171 723.301 838.22 717.478 833.849 710.465C829.589 703.62 827.039 696.061 822.142 689.535C814.337 679.125 803.221 671.637 790.518 667.798C775.155 663.153 759.994 663.342 745.087 669.581C736.384 673.116 728.405 678.222 721.548 684.643C709.359 696.353 703.056 713.51 703.082 729.814C703.082 738.044 705.684 745.174 707.551 753.04C709.37 760.622 710.052 768.432 709.574 776.214C707.622 807.372 686.926 835.718 657.039 847.949C655.947 848.392 654.847 848.821 653.742 849.251C609.624 865.301 560.855 843.974 544.822 801.588C541.57 793.032 540.172 784.067 536.367 775.668C533.478 769.275 529.854 763.24 525.57 757.685C518.198 748.244 508.827 740.554 498.129 735.168C484.568 728.311 469.133 724.7 453.777 724.31C437.783 723.9 422.309 729.339 406.355 729.514C348.604 730.204 301.774 685.586 301.774 629.81C301.774 574.034 348.656 528.245 406.426 527.516C438.661 527.106 469.627 541.446 489.303 565.837C491.037 567.97 492.661 570.172 494.174 572.44C495.69 574.691 497.108 576.994 498.421 579.369C499.735 581.744 500.926 584.125 502.025 586.571C503.124 589.017 504.119 591.503 505.017 594.02C505.914 596.538 506.714 599.108 507.41 601.691C508.106 604.274 508.711 606.896 509.231 609.563C509.505 610.995 509.758 612.458 509.979 613.903C510.201 615.347 510.324 616.765 510.558 618.184Z" fill="url(#paint1_linear_4874_1362)"/>
<path d="M181.544 1021.07L181.433 1021.02C179.534 1020.25 177.674 1019.35 175.833 1018.42C173.992 1017.49 172.171 1016.53 170.382 1015.5C168.594 1014.48 166.857 1013.4 165.179 1012.25C163.501 1011.1 161.81 1009.93 160.19 1008.68C158.571 1007.43 157.016 1006.13 155.501 1004.78C153.985 1003.42 152.535 1001.99 151.143 1000.51C149.751 999.038 148.424 997.496 147.162 995.896C145.901 994.295 144.71 992.643 143.598 990.919C142.486 989.195 141.445 987.405 140.496 985.571C139.546 983.736 138.668 981.797 137.894 979.845C137.12 977.894 136.431 975.857 135.845 973.801C131.943 959.97 132.118 944.824 135.409 930.667C138.883 915.703 148.977 903.192 160.607 893.745C180.119 877.877 204.107 874.051 227.6 879.49C254.976 885.834 283.965 867.344 292.583 839.921C292.98 838.652 293.338 837.364 293.656 836.069C297.002 822.382 295.237 807.944 288.694 795.466C285.512 789.476 281.242 784.132 276.102 779.708C270.02 774.503 262.846 772.024 256.101 767.926C236.445 755.974 226.318 732.331 230.592 708.942C233.701 691.91 229.649 675.332 214.982 665.593C197.245 653.798 173.147 659.263 161.166 677.798C158.19 682.409 156.159 687.565 155.19 692.967C154.222 698.369 154.337 703.91 155.527 709.268C157.213 716.318 160.878 722.74 166.09 727.777C171.085 732.741 177.023 736.385 181.622 741.811C188.959 750.614 193.289 761.534 193.98 772.974C194.936 786.969 191.82 799.838 183.573 811.314C178.866 818.035 172.967 823.834 166.168 828.425C153.849 836.518 137.998 838.535 124.131 835.341C117.126 833.727 111.552 830.136 105.23 827.007C99.1303 823.982 92.6159 821.879 85.8994 820.767C59.0176 816.33 30.8544 828.451 14.6135 851.521C14.0281 852.36 13.4492 853.213 12.8898 854.078C-9.36752 888.521 -0.71692 934.199 32.2268 956.112C38.8741 960.542 46.2303 963.489 52.6305 968.382C57.5088 972.084 61.9379 976.344 65.8275 981.075C72.4258 989.195 77.1458 998.676 79.6489 1008.84C82.7681 1021.93 82.9701 1035.54 80.2408 1048.72C77.47 1062.38 69.8341 1074.53 66.543 1088.07C54.6598 1137.13 83.5059 1185.66 130.973 1196.55C178.441 1207.43 226.546 1176.42 238.429 1127.38C245.057 1100.01 238.891 1070.85 221.967 1049.31C220.493 1047.43 218.936 1045.61 217.297 1043.87C215.658 1042.13 213.967 1040.47 212.224 1038.91C210.481 1037.34 208.666 1035.85 206.799 1034.44C204.933 1033.03 203.014 1031.69 201.043 1030.44C199.072 1029.18 197.05 1028 194.981 1026.9C192.913 1025.8 190.793 1024.77 188.64 1023.82C187.475 1023.31 186.279 1022.8 185.088 1022.34C183.898 1021.87 182.708 1021.54 181.544 1021.07Z" fill="url(#paint2_linear_4874_1362)"/>
<defs>
<linearGradient id="paint0_linear_4874_1362" x1="126.531" y1="573.617" x2="531.901" y2="60.5683" gradientUnits="userSpaceOnUse">
<stop stop-color="#9E005D"/>
<stop offset="0.42" stop-color="#F51B67"/>
<stop offset="0.53" stop-color="#F53849"/>
<stop offset="0.73" stop-color="#F46917"/>
<stop offset="0.83" stop-color="#F47C03"/>
<stop offset="0.86" stop-color="#F48106"/>
<stop offset="0.9" stop-color="#F38E11"/>
<stop offset="0.94" stop-color="#F3A422"/>
<stop offset="0.98" stop-color="#F2C339"/>
<stop offset="1" stop-color="#F1D446"/>
</linearGradient>
<linearGradient id="paint1_linear_4874_1362" x1="329.672" y1="629.37" x2="883.014" y2="747.585" gradientUnits="userSpaceOnUse">
<stop stop-color="#9E005D"/>
<stop offset="0.42" stop-color="#F51B67"/>
<stop offset="0.53" stop-color="#F53849"/>
<stop offset="0.73" stop-color="#F46917"/>
<stop offset="0.83" stop-color="#F47C03"/>
<stop offset="0.86" stop-color="#F48106"/>
<stop offset="0.9" stop-color="#F38E11"/>
<stop offset="0.94" stop-color="#F3A422"/>
<stop offset="0.98" stop-color="#F2C339"/>
<stop offset="1" stop-color="#F1D446"/>
</linearGradient>
<linearGradient id="paint2_linear_4874_1362" x1="142.048" y1="1171.29" x2="150.191" y2="678.364" gradientUnits="userSpaceOnUse">
<stop stop-color="#9E005D"/>
<stop offset="0.42" stop-color="#F51B67"/>
<stop offset="0.53" stop-color="#F53849"/>
<stop offset="0.73" stop-color="#F46917"/>
<stop offset="0.83" stop-color="#F47C03"/>
<stop offset="0.86" stop-color="#F48106"/>
<stop offset="0.9" stop-color="#F38E11"/>
<stop offset="0.94" stop-color="#F3A422"/>
<stop offset="0.98" stop-color="#F2C339"/>
<stop offset="1" stop-color="#F1D446"/>
</linearGradient>
</defs>
</svg>
