<svg width="488" height="242" viewBox="0 0 488 242" fill="none" xmlns="http://www.w3.org/2000/svg">
<g clip-path="url(#clip0_4875_1364)">
<path d="M165.211 10.127L165.361 10.1725C168.021 11.0508 170.759 11.7535 173.478 12.4301C176.197 13.1067 178.961 13.7313 181.726 14.2323C184.49 14.7332 187.254 15.1821 190.038 15.5335C192.822 15.8848 195.586 16.1255 198.376 16.2752C201.167 16.4248 203.924 16.4768 206.695 16.4183C209.466 16.3597 212.217 16.2036 214.968 15.9238C217.72 15.6441 220.445 15.2732 223.157 14.7527C225.87 14.2323 228.562 13.6142 231.216 12.8595C233.87 12.1048 236.53 11.22 239.119 10.205C244.398 8.13891 249.457 5.54964 254.221 2.47592C270.358 -7.93367 283.315 -23.2358 292.167 -40.2099C301.52 -58.1469 301.799 -79.3629 297.812 -98.8419C291.107 -131.561 269.292 -156.095 239.925 -170.928C205.7 -188.241 191.352 -231.74 206.142 -266.566C206.793 -268.186 207.573 -269.774 208.367 -271.342C214.696 -283.759 224.347 -294.176 236.243 -301.433C248.14 -308.69 261.816 -312.503 275.75 -312.447C286.664 -312.401 296.329 -308.667 306.97 -306.936C337.976 -301.881 369.144 -316.741 384.982 -343.78C396.52 -363.473 415.181 -376.518 438.999 -373.59C449.51 -372.308 459.39 -367.885 467.35 -360.9C475.309 -353.914 480.977 -344.689 483.614 -334.431C486.251 -324.173 485.734 -313.358 482.13 -303.398C478.527 -293.438 472.005 -284.797 463.416 -278.603C455.415 -272.825 446.049 -269.917 436.261 -269.253C426.699 -268.603 417.307 -270.106 407.772 -268.655C392.591 -266.287 378.566 -259.119 367.752 -248.2C354.588 -235.064 346.672 -219.515 345.319 -200.966C344.532 -190.186 345.462 -179.191 348.714 -168.853C354.568 -150.129 369.469 -134.417 386.796 -125.627C395.544 -121.19 404.501 -119.954 413.86 -117.625C422.882 -115.382 431.536 -111.857 439.558 -107.157C471.617 -88.3607 490.629 -51.9337 487.611 -14.8756C487.499 -13.5266 487.362 -12.1799 487.202 -10.8353C484.037 14.9056 470.78 38.335 450.347 54.2997C429.913 70.2645 403.978 77.4571 378.243 74.2956C367.414 72.9944 357.144 69.5592 346.178 68.9151C337.862 68.404 329.516 68.8406 321.299 70.2163C307.43 72.5798 294.249 77.9636 282.69 85.9869C268.147 96.0972 256.023 109.864 247.411 125.29C238.416 141.359 235.906 160.058 227.58 176.414C197.427 235.657 124.97 259.222 65.7427 229.06C6.51556 198.898 -17.0231 126.389 13.1304 67.139C21.5437 50.7566 33.5796 36.5079 48.3234 25.4757C63.0672 14.4435 80.131 6.91817 98.2182 3.47136C101.405 2.87281 104.614 2.4087 107.844 2.07907C111.045 1.75377 114.264 1.55858 117.477 1.50002C120.69 1.44147 123.871 1.50004 127.058 1.72124C130.245 1.94245 133.412 2.24824 136.567 2.70366C139.721 3.15908 142.876 3.72509 145.998 4.40822C149.12 5.09135 152.249 5.90461 155.332 6.81545C156.997 7.3034 158.688 7.83689 160.346 8.3964C162.005 8.95592 163.546 9.58047 165.211 10.127Z" fill="url(#paint0_linear_4875_1364)"/>
</g>
<defs>
<linearGradient id="paint0_linear_4875_1364" x1="90.1337" y1="199.373" x2="495.503" y2="-313.676" gradientUnits="userSpaceOnUse">
<stop stop-color="#9E005D"/>
<stop offset="0.42" stop-color="#F51B67"/>
<stop offset="0.53" stop-color="#F53849"/>
<stop offset="0.73" stop-color="#F46917"/>
<stop offset="0.83" stop-color="#F47C03"/>
<stop offset="0.86" stop-color="#F48106"/>
<stop offset="0.9" stop-color="#F38E11"/>
<stop offset="0.94" stop-color="#F3A422"/>
<stop offset="0.98" stop-color="#F2C339"/>
<stop offset="1" stop-color="#F1D446"/>
</linearGradient>
<clipPath id="clip0_4875_1364">
<rect width="488" height="242" fill="white"/>
</clipPath>
</defs>
</svg>
