<svg width="25" height="25" viewBox="0 0 25 25" fill="none" xmlns="http://www.w3.org/2000/svg">
<path d="M10.1025 9.13293C10.7168 8.3895 11.6467 7.91418 12.6875 7.91418C13.7283 7.91418 14.6582 8.3895 15.2725 9.13293C15.6769 9.62325 15.9335 10.2185 16.0125 10.8491C16.0914 11.4798 15.9895 12.1199 15.7184 12.6947C15.4474 13.2696 15.0185 13.7556 14.4817 14.096C13.9449 14.4363 13.3225 14.617 12.6869 14.617C12.0513 14.617 11.4288 14.4363 10.8921 14.096C10.3553 13.7556 9.9264 13.2696 9.65536 12.6947C9.38432 12.1199 9.28233 11.4798 9.36129 10.8491C9.44025 10.2185 9.6969 9.62325 10.1013 9.13293M17.2566 11.2657C17.2566 10.4955 17.0665 9.76912 16.7301 9.13293H21.8281C22.313 9.13293 22.778 9.32554 23.1208 9.66838C23.4636 10.0112 23.6562 10.4762 23.6562 10.9611V11.5704C23.6562 13.5046 22.1864 15.4851 19.6161 16.1822C19.352 15.7077 18.9658 15.3124 18.4976 15.0373C18.0294 14.7622 17.4962 14.6172 16.9531 14.6173H15.7953C16.2573 14.1899 16.6257 13.6714 16.8774 13.0946C17.1291 12.5178 17.2586 11.8951 17.2578 11.2657M16.9531 15.8361C17.1934 15.8354 17.4314 15.8823 17.6535 15.9739C17.8756 16.0655 18.0774 16.2002 18.2472 16.3701C18.4171 16.54 18.5518 16.7417 18.6434 16.9638C18.735 17.1859 18.7819 17.4239 18.7812 17.6642V18.2736C18.7812 20.6757 16.5144 23.1486 12.6875 23.1486C8.86062 23.1486 6.59375 20.6757 6.59375 18.2736V17.6642C6.59311 17.4239 6.63995 17.1859 6.7316 16.9638C6.82324 16.7417 6.95788 16.54 7.12776 16.3701C7.29765 16.2002 7.49943 16.0655 7.72152 15.9739C7.94361 15.8823 8.18162 15.8354 8.42187 15.8361H16.9531ZM1.71875 11.5704C1.71875 13.5046 3.18856 15.4851 5.75891 16.1822C6.02305 15.7077 6.4092 15.3124 6.8774 15.0373C7.3456 14.7622 7.87882 14.6172 8.42187 14.6173H9.57969C9.11774 14.1899 8.74931 13.6714 8.49761 13.0946C8.2459 12.5178 8.11638 11.8951 8.11719 11.2657C8.11719 10.4955 8.30731 9.76912 8.64491 9.13293H3.54687C3.06203 9.13293 2.59704 9.32554 2.2542 9.66838C1.91136 10.0112 1.71875 10.4762 1.71875 10.9611V11.5704ZM11.1641 4.56262C11.1641 3.67373 10.811 2.82125 10.1824 2.19271C9.55387 1.56417 8.70139 1.21106 7.8125 1.21106C6.92361 1.21106 6.07113 1.56417 5.44259 2.19271C4.81405 2.82125 4.46094 3.67373 4.46094 4.56262C4.46094 5.45151 4.81405 6.30399 5.44259 6.93253C6.07113 7.56107 6.92361 7.91418 7.8125 7.91418C8.70139 7.91418 9.55387 7.56107 10.1824 6.93253C10.811 6.30399 11.1641 5.45151 11.1641 4.56262ZM20.9141 4.56262C20.9141 3.67373 20.561 2.82125 19.9324 2.19271C19.3039 1.56417 18.4514 1.21106 17.5625 1.21106C16.6736 1.21106 15.8211 1.56417 15.1926 2.19271C14.564 2.82125 14.2109 3.67373 14.2109 4.56262C14.2109 5.45151 14.564 6.30399 15.1926 6.93253C15.8211 7.56107 16.6736 7.91418 17.5625 7.91418C18.4514 7.91418 19.3039 7.56107 19.9324 6.93253C20.561 6.30399 20.9141 5.45151 20.9141 4.56262Z" fill="#F54739"/>
</svg>
