<svg width="25" height="26" viewBox="0 0 25 26" fill="none" xmlns="http://www.w3.org/2000/svg">
<path d="M7.35547 20.7349C8.87487 21.9317 10.7534 22.5811 12.6875 22.5783C14.7 22.5783 16.552 21.8897 18.0195 20.7349M10.1484 5.69202C6.61965 6.7762 4.05469 10.0612 4.05469 13.9455C4.05469 14.923 4.21719 15.8625 4.5168 16.7385M15.2266 5.69202C18.7553 6.7762 21.3203 10.0612 21.3203 13.9455C21.3203 14.923 21.1578 15.8625 20.8582 16.7385" stroke="#F54739" stroke-width="0.9375"/>
<path d="M22.3359 19.0236C22.3359 19.7051 22.0678 20.3236 21.6311 20.7796C21.2233 21.2057 20.6798 21.4765 20.0941 21.5455C19.5083 21.6146 18.9168 21.4775 18.4211 21.158C17.9254 20.8384 17.5564 20.3562 17.3775 19.7942C17.1985 19.2322 17.2208 18.6255 17.4405 18.0781C17.6602 17.5308 18.0636 17.077 18.5815 16.7947C19.0993 16.5123 19.6993 16.4191 20.2784 16.5309C20.8575 16.6428 21.3796 16.9527 21.755 17.4076C22.1305 17.8624 22.3359 18.4338 22.3359 19.0236ZM8.11719 19.0236C8.11719 19.7051 7.84906 20.3236 7.41234 20.7796C7.00452 21.2057 6.46108 21.4765 5.87534 21.5455C5.2896 21.6146 4.69809 21.4775 4.20238 21.158C3.70666 20.8384 3.33766 20.3562 3.15873 19.7942C2.9798 19.2322 3.0021 18.6255 3.22179 18.0781C3.44149 17.5308 3.84489 17.077 4.36272 16.7947C4.88056 16.5123 5.48052 16.4191 6.05962 16.5309C6.63871 16.6428 7.1608 16.9527 7.53626 17.4076C7.91172 17.8624 8.11711 18.4338 8.11719 19.0236ZM15.2266 5.31268C15.2266 5.99416 14.9584 6.61268 14.5217 7.06869C14.1139 7.49476 13.5705 7.76556 12.9847 7.8346C12.399 7.90364 11.8075 7.76661 11.3118 7.44704C10.816 7.12747 10.447 6.64529 10.2681 6.0833C10.0892 5.5213 10.1115 4.91454 10.3312 4.36719C10.5509 3.81984 10.9543 3.36605 11.4721 3.08372C11.9899 2.8014 12.5899 2.70816 13.169 2.82C13.7481 2.93185 14.2702 3.2418 14.6456 3.69666C15.0211 4.15151 15.2265 4.72288 15.2266 5.31268Z" fill="#F54739" stroke="#F54739" stroke-width="0.9375" stroke-linecap="round" stroke-linejoin="round"/>
</svg>
