<svg width="25" height="25" viewBox="0 0 25 25" fill="none" xmlns="http://www.w3.org/2000/svg">
<g clip-path="url(#clip0_4571_1633)">
<path d="M12.6875 12.6799L3.59562 9.04806L4.15625 22.4299H1.71875L2.30375 8.52399L0.5 7.80493L12.6875 2.92993L24.875 7.80493L12.6875 12.6799ZM12.6875 6.58618C12.0172 6.58618 11.4688 6.85431 11.4688 7.19556C11.4688 7.53681 12.0172 7.80493 12.6875 7.80493C13.3578 7.80493 13.9062 7.53681 13.9062 7.19556C13.9062 6.85431 13.3578 6.58618 12.6875 6.58618ZM12.6875 13.8987L19.4759 11.1809C20.3412 12.3265 20.9384 13.7037 21.1334 15.2027C20.7678 15.154 20.39 15.1174 20 15.1174C16.8922 15.1174 14.1744 16.7871 12.6875 19.2734C11.9324 18.0071 10.8617 16.9585 9.57991 16.23C8.29816 15.5016 6.84929 15.1182 5.375 15.1174C4.985 15.1174 4.60719 15.154 4.24156 15.2027C4.43656 13.7037 5.03375 12.3265 5.89906 11.1809L12.6875 13.8987Z" fill="#F54739"/>
</g>
<defs>
<clipPath id="clip0_4571_1633">
<rect width="24.375" height="24.375" fill="white" transform="translate(0.5 0.49231)"/>
</clipPath>
</defs>
</svg>
