<svg width="52" height="53" viewBox="0 0 52 53" fill="none" xmlns="http://www.w3.org/2000/svg">
<path d="M26 26.5002L6.604 18.7522L7.8 47.3002H2.6L3.848 17.6342L0 16.1002L26 5.7002L52 16.1002L26 26.5002ZM26 13.5002C24.57 13.5002 23.4 14.0722 23.4 14.8002C23.4 15.5282 24.57 16.1002 26 16.1002C27.43 16.1002 28.6 15.5282 28.6 14.8002C28.6 14.0722 27.43 13.5002 26 13.5002ZM26 29.1002L40.482 23.3022C42.328 25.7462 43.602 28.6842 44.018 31.8822C43.238 31.7782 42.432 31.7002 41.6 31.7002C34.97 31.7002 29.172 35.2622 26 40.5662C24.3892 37.8648 22.1049 35.6278 19.3705 34.0737C16.6361 32.5197 13.5452 31.7018 10.4 31.7002C9.568 31.7002 8.762 31.7782 7.982 31.8822C8.398 28.6842 9.672 25.7462 11.518 23.3022L26 29.1002Z" fill="#51B477"/>
</svg>
