<svg width="467" height="18" viewBox="0 0 467 18" fill="none" xmlns="http://www.w3.org/2000/svg">
<path d="M4.27531 10.4766V15.3867H11.7636V18H0.935471V0.9375H11.6464V3.55078H4.27531V7.875H10.5566V10.4766H4.27531ZM73.7703 13.5703H73.8406L77.5789 0.9375H81.9383V18H78.6102V13.1719L78.9617 5.27344L78.8914 5.26172L74.8836 18H72.657L68.6492 5.30859L68.5906 5.32031L68.9773 13.1719V18H65.6375V0.9375H69.9969L73.7703 13.5703ZM193.553 0.9375H198.909C200.042 0.9375 201.057 1.09766 201.956 1.41797C202.854 1.73828 203.569 2.24609 204.1 2.94141C204.639 3.62891 204.909 4.50781 204.909 5.57812C204.909 6.40625 204.71 7.13281 204.311 7.75781C203.92 8.38281 203.346 8.84766 202.588 9.15234C203.518 9.38672 204.229 9.86328 204.721 10.582C205.213 11.293 205.46 12.1133 205.46 13.043C205.46 14.0977 205.233 14.9961 204.78 15.7383C204.327 16.4727 203.667 17.0352 202.799 17.4258C201.932 17.8086 200.885 18 199.659 18H193.553V0.9375ZM199.049 8.14453C199.854 8.12891 200.471 7.92969 200.901 7.54688C201.338 7.15625 201.557 6.60156 201.557 5.88281C201.557 5.09375 201.338 4.50781 200.901 4.125C200.463 3.74219 199.799 3.55078 198.909 3.55078H196.881V8.14453H199.049ZM196.881 15.3984H199.659C200.463 15.3984 201.077 15.1914 201.499 14.7773C201.92 14.3555 202.131 13.7695 202.131 13.0195C202.131 12.2148 201.94 11.5859 201.557 11.1328C201.182 10.6719 200.62 10.4414 199.87 10.4414H196.881V15.3984ZM262.779 18H259.439V0.949219H265.193C266.372 0.949219 267.412 1.14062 268.31 1.52344C269.208 1.90625 269.908 2.47266 270.408 3.22266C270.915 3.97266 271.169 4.88672 271.169 5.96484C271.169 6.55078 271.044 7.15234 270.794 7.76953C270.552 8.37891 270.185 8.93359 269.693 9.43359C269.201 9.92578 268.603 10.2891 267.9 10.5234L271.755 18H268.052L265.322 11.9531C265.087 11.4375 264.705 11.1797 264.173 11.1797H262.779V18ZM265.111 8.56641C265.665 8.56641 266.15 8.46484 266.564 8.26172C266.978 8.05859 267.294 7.77344 267.513 7.40625C267.74 7.03906 267.853 6.61719 267.853 6.14062C267.853 5.625 267.744 5.17188 267.525 4.78125C267.306 4.39062 266.994 4.08984 266.587 3.87891C266.189 3.66016 265.724 3.55078 265.193 3.55078H262.779V8.56641H265.111ZM328.594 10.4766V15.3867H336.082V18H325.254V0.9375H335.965V3.55078H328.594V7.875H334.875V10.4766H328.594ZM395.112 14.5312H395.183L395.394 13.4531L398.652 0.9375H402.167L396.894 18H393.413L388.14 0.9375H391.667L394.913 13.4531L395.112 14.5312ZM458.561 10.4766V15.3867H466.049V18H455.221V0.9375H465.932V3.55078H458.561V7.875H464.842V10.4766H458.561Z" fill="white"/>
</svg>
