<svg width="251" height="13" viewBox="0 0 251 13" fill="none" xmlns="http://www.w3.org/2000/svg">
<path d="M3.22648 7.35742V11.04H8.84269V13H0.721596V0.203125H8.7548V2.16309H3.22648V5.40625H7.93742V7.35742H3.22648ZM41.1277 9.67773H41.1805L43.9842 0.203125H47.2537V13H44.7576V9.37891L45.0213 3.45508L44.9686 3.44629L41.9627 13H40.2928L37.2869 3.48145L37.243 3.49023L37.533 9.37891V13H35.0281V0.203125H38.2977L41.1277 9.67773ZM102.525 0.203125H106.542C107.391 0.203125 108.153 0.323242 108.827 0.563477C109.501 0.803711 110.037 1.18457 110.435 1.70605C110.839 2.22168 111.042 2.88086 111.042 3.68359C111.042 4.30469 110.892 4.84961 110.593 5.31836C110.3 5.78711 109.87 6.13574 109.301 6.36426C109.999 6.54004 110.532 6.89746 110.901 7.43652C111.27 7.96973 111.455 8.58496 111.455 9.28223C111.455 10.0732 111.285 10.7471 110.945 11.3037C110.605 11.8545 110.11 12.2764 109.46 12.5693C108.809 12.8564 108.024 13 107.104 13H102.525V0.203125ZM106.647 5.6084C107.251 5.59668 107.713 5.44727 108.036 5.16016C108.364 4.86719 108.528 4.45117 108.528 3.91211C108.528 3.32031 108.364 2.88086 108.036 2.59375C107.708 2.30664 107.21 2.16309 106.542 2.16309H105.021V5.6084H106.647ZM105.021 11.0488H107.104C107.708 11.0488 108.168 10.8936 108.484 10.583C108.8 10.2666 108.959 9.82715 108.959 9.26465C108.959 8.66113 108.815 8.18945 108.528 7.84961C108.247 7.50391 107.825 7.33105 107.262 7.33105H105.021V11.0488ZM140.224 13H137.719V0.211914H142.035C142.919 0.211914 143.699 0.355469 144.372 0.642578C145.046 0.929688 145.571 1.35449 145.946 1.91699C146.327 2.47949 146.517 3.16504 146.517 3.97363C146.517 4.41309 146.423 4.86426 146.236 5.32715C146.054 5.78418 145.779 6.2002 145.41 6.5752C145.04 6.94434 144.592 7.2168 144.065 7.39258L146.956 13H144.179L142.131 8.46484C141.956 8.07812 141.668 7.88477 141.27 7.88477H140.224V13ZM141.973 5.9248C142.389 5.9248 142.752 5.84863 143.063 5.69629C143.373 5.54395 143.611 5.33008 143.775 5.05469C143.945 4.7793 144.03 4.46289 144.03 4.10547C144.03 3.71875 143.948 3.37891 143.784 3.08594C143.62 2.79297 143.385 2.56738 143.081 2.40918C142.782 2.24512 142.433 2.16309 142.035 2.16309H140.224V5.9248H141.973ZM175.366 7.35742V11.04H180.982V13H172.861V0.203125H180.894V2.16309H175.366V5.40625H180.076V7.35742H175.366ZM211.034 10.3984H211.087L211.245 9.58984L213.689 0.203125H216.325L212.37 13H209.76L205.805 0.203125H208.45L210.885 9.58984L211.034 10.3984ZM244.4 7.35742V11.04H250.017V13H241.896V0.203125H249.929V2.16309H244.4V5.40625H249.111V7.35742H244.4Z" fill="white"/>
</svg>
