<svg width="742" height="199" viewBox="0 0 742 199" fill="none" xmlns="http://www.w3.org/2000/svg">
<path d="M581.259 114.482C582.519 114.56 583.779 114.691 585.036 114.801C586.781 119.679 585.443 128.355 585.44 133.661L585.397 179.256C584.098 179.189 582.831 179.072 581.542 178.958C579.971 174.286 581.213 165.408 581.217 160.268L581.259 114.482Z" fill="white"/>
<path d="M523.848 114.616C530.96 114.606 566.894 113.823 569.751 115.388L569.705 116.882C565.963 118.776 553.977 117.912 548.713 117.862V167.004C548.787 170.271 550.196 176.148 548.146 179.05L545.789 179.146C543.959 177.84 544.982 124.44 544.989 117.862C538.886 117.862 529.721 118.567 524.025 117.618L523.848 114.616Z" fill="white"/>
<path d="M503.926 113.554C505.55 113.657 507.235 113.781 508.807 114.046C512.099 114.606 516.921 116.67 518.071 118.563C518.744 119.671 518.096 120.135 517.239 121.091C513.795 119.767 510.928 117.923 506.938 117.105C504.386 116.581 501.724 116.478 499.228 117.172C494.552 118.468 491.391 122.047 489.716 124.67C482.112 136.589 482.034 159.446 491.953 170.916C493.964 173.238 496.817 175.666 501.444 176.459C505.444 177.146 508.322 176.59 511.94 175.592C513.451 174.703 515.246 173.326 517.445 173.125L518.471 173.659C518.422 174.604 517.795 175.263 516.899 176.038C514.45 178.165 510.535 179.769 506.06 180.205C502.694 180.534 499.401 180.038 496.64 178.93C488.261 175.567 484.675 168.615 482.873 163.195C478.997 151.513 478.109 127.951 490.661 118.135C494.283 115.303 497.876 114.121 503.926 113.554Z" fill="white"/>
<path d="M674.437 20.6929C676.809 20.7817 679.078 20.8861 681.269 21.4504C685.946 22.654 689.305 24.9206 691.114 27.588C702.166 43.8554 676.197 71.5672 664.331 86.6827C670.175 86.6792 690.951 85.9925 695.015 87.0474C695.217 88.035 695.079 88.1589 694.296 89.0616C689.429 90.9731 678.742 89.9501 672.943 89.9112C668.965 89.9607 664.419 90.2828 660.543 89.7731C658.221 85.2313 690.587 51.6833 689.394 36.5858C689.125 33.2006 688.034 28.0206 683.188 25.7465C680.611 24.5362 677.386 24.1457 674.09 24.3369C668.827 24.642 666.058 27.0184 662.996 29.1498C661.616 28.2623 661.311 27.7221 661.343 26.5536C665.042 23.442 667.913 21.6798 674.437 20.6929Z" fill="white"/>
<path d="M582.399 20.6993C584.491 20.7725 586.459 20.8957 588.42 21.3474C592.93 22.3871 596.534 24.6229 598.421 27.1147C610.704 43.3245 583.372 71.2769 572.091 86.6828C579.457 86.7252 593.213 85.7093 599.72 86.9129C601.529 87.2456 602.024 87.5465 602.892 88.4704L602.392 89.1784C596.58 90.7856 585.953 89.9607 579.489 89.9112C575.708 89.9395 571.981 89.9962 568.218 89.7484C567.273 88.6935 567.942 87.2314 568.494 86.1447C570.253 82.7003 573.407 79.256 575.893 75.9497C583.348 66.0237 592.187 55.4074 595.826 44.7702C597.946 38.5749 597.929 31.2617 591.065 25.926C589.599 24.7868 587.638 23.8335 585.011 23.7737C579.248 23.6424 574.108 27.0241 570.338 29.055C569.552 28.1406 569.075 27.5306 568.901 26.4998C572.915 23.3712 575.531 21.5623 582.399 20.6993Z" fill="white"/>
<path d="M596.509 114.464L600.672 114.765C604.216 120.234 605.741 128.121 607.809 133.959C612.556 147.368 618.014 160.834 621.427 174.374C624.595 161.326 629.986 148.331 634.567 135.417C636.932 128.751 638.192 121.314 642.026 114.917C643.53 114.677 643.827 114.673 645.35 114.875C646.373 116.22 644.684 118.694 644.089 120.11C638.422 134.051 633.972 148.253 628.938 162.278C626.673 168.583 624.935 175.178 621.487 181.309C617.023 175.362 615.455 166.774 613.143 160.345C607.642 145.049 602.35 129.721 596.509 114.464Z" fill="white"/>
<path d="M346.582 113.554C348.989 113.7 351.34 113.862 353.587 114.393C357.435 115.303 363.135 117.126 364.565 119.463C365.23 120.549 365.393 121.19 364.604 122.22C363.326 121.969 363.606 122.114 362.767 121.682C361.659 121.116 360.611 120.514 359.481 119.958C355.775 118.135 351.301 116.51 346.146 116.832C342.734 117.045 339.831 118.142 337.76 119.647C334.514 122.008 333.204 125.204 332.964 128.135C331.636 144.345 361.69 143.393 365.829 158.99C367.319 164.6 366.168 171.868 359.736 176.445C356.154 178.994 352.394 179.85 346.805 180.261C344.04 179.978 341.555 179.652 339.07 178.888C335.562 177.808 329.314 175.203 328.376 172.866C328.004 171.935 327.955 171.44 328.861 170.604L330.415 170.728C332.203 172.385 334.051 173.503 336.872 174.629C340.352 176.02 345.046 177.21 349.414 176.679C353.304 176.204 356.405 174.622 358.519 172.785C361.297 170.367 362.105 167.744 362.448 164.933C364.381 149.191 335.148 148.313 329.937 135.003C327.884 129.76 329.041 122.139 334.504 117.636C337.598 115.084 341.336 114.1 346.582 113.554Z" fill="white"/>
<path d="M720.411 113.554C721.522 113.623 722.629 113.705 723.731 113.802C730.616 114.439 735.027 116.836 738.978 119.912C739.127 120.808 738.567 121.211 737.753 121.962L736.507 121.873C735.222 121.017 733.93 120.128 732.39 119.409C728.97 117.824 724.043 116.447 719.494 116.811C716.212 117.077 713.504 118.188 711.565 119.664C708.474 122.022 707.331 125.003 706.984 127.87C705.065 143.626 735.856 144.281 739.76 158.618C741.357 164.487 739.965 171.85 733.325 176.615C729.859 179.1 726.039 179.872 720.623 180.258C717.193 179.939 714.418 179.436 711.462 178.381C707.154 176.842 702.771 174.562 701.67 171.652L702.623 171.139C706.407 171.836 709.299 174.087 712.711 175.298C715.866 176.42 720.163 177.16 723.876 176.611C727.317 176.102 730.429 174.675 732.199 172.951C734.84 170.374 736.33 167.047 736.571 164.105C737.732 149.995 708.74 147.474 703.755 134.805C701.731 129.658 702.906 122.033 708.318 117.632C711.437 115.098 715.168 114.11 720.411 113.554Z" fill="white"/>
<path d="M229.934 114.616C237.052 114.595 262.02 113.646 266.494 115.508C266.292 116.532 266.296 116.638 265.121 117.413C261.315 118.224 239.474 117.639 233.672 117.647V143.793C242.706 143.739 253.06 143.095 261.747 144.671L262.278 145.708L263.291 145.318L260.908 145.998L261.652 145.987C252.961 147.559 242.713 146.933 233.672 146.887V176.098C240.529 176.162 262.083 174.919 266.572 177.128C267.053 178.052 267.291 178.017 266.675 178.98C254.55 179.447 242.1 179.142 229.937 179.15L229.934 114.616Z" fill="white"/>
<path d="M433.834 114.616C439.828 114.67 465.152 113.901 468.671 115.07C470.161 115.562 470.129 116.054 470.381 116.91L469.56 117.516C458.947 117.785 448.231 117.639 437.604 117.647V143.793C446.529 143.793 457.354 142.989 465.804 144.717L465.949 145.75L467.184 145.318L464.795 145.998L465.588 145.98C456.904 147.563 446.645 146.933 437.604 146.887V176.098C448.384 176.088 459.237 175.925 470.009 176.109C471.128 176.98 470.728 177.574 470.675 178.619C468.314 179.822 438.521 179.153 433.838 179.15L433.834 114.616Z" fill="white"/>
<path d="M397.182 21.7789H410.609V89.9111H397.182V21.7789Z" fill="white"/>
<path d="M667.761 114.259C668.72 114.425 669.442 114.648 670.317 114.917C672.982 118.1 675.195 127.541 676.667 131.566C682.469 147.418 688.597 163.276 693.709 179.203L693.195 179.571L691.779 179.578C686.742 176.863 684.544 164.643 682.76 160.321H655.29C654.238 164.246 651.166 175.411 648.436 178.604C646.829 179.199 646.904 179.238 645.02 179.082C644.174 177.557 665.219 121.682 667.761 114.259ZM669.294 120.475C667.053 125.353 665.803 130.447 664.097 135.399C661.594 142.674 658.766 149.945 656.553 157.248H681.708L669.294 120.475Z" fill="white"/>
<path d="M726.372 21.7431C728.046 21.736 729.416 21.7966 731.048 22.0164C732.493 26.7868 731.473 32.4507 731.463 37.3291L731.406 69.1352C733.82 69.0821 737.764 68.7493 739.934 69.4184C741.481 69.8927 741.672 70.1441 741.98 71.0362C741.495 71.3831 741.183 71.645 740.532 71.9247C738.422 72.8309 733.93 72.438 731.406 72.3955C731.438 78.0311 732.376 84.2083 730.609 89.766L729.108 90.2757L729.77 90.6085C726.33 88.5234 727.101 85.1641 727.225 82.5374V72.3955C717.813 72.4203 708.368 72.5406 698.962 72.268L699.122 71.9813L698.187 72.084C698.987 66.1616 704.371 59.4534 707.674 53.8037L726.372 21.7431ZM726.91 27.9256C723.728 33.0897 702.913 66.8059 703.295 69.1352H727.225L727.303 40.262C727.307 36.4937 728.376 31.5513 726.91 27.9256Z" fill="white"/>
<path d="M193.653 20.7382C195.385 20.7368 197.108 20.8065 198.821 20.9474C206.69 21.5828 211.342 24.9649 215.876 28.2715L212.206 34.4792C211.154 33.7439 210.096 33.0066 208.952 32.3138C205.565 30.2564 201.271 28.4167 196.063 28.4227C193.235 28.4259 190.647 29.0103 188.722 30.1902C185.114 32.4002 183.967 37.5129 184.413 40.4302C185.521 47.6584 196.46 49.5806 204.91 53.6232C212.896 57.4428 216.085 62.8801 217.02 68.5795C218.018 74.6646 216.641 82.3215 209.243 87.1005C204.988 89.851 200.492 90.7041 194.194 90.92C184.746 89.9855 179.436 87.1783 173.578 83.1853L177.341 76.9267C179.861 78.6223 182.523 80.2329 185.936 81.3622C189.706 82.6118 193.355 83.7658 197.816 83.0154C201.504 82.3923 203.936 80.8914 205.604 78.9834C207.104 77.27 207.657 75.0576 207.929 73.1566C209.756 60.4907 183.79 59.8252 177.142 48.292C173.471 41.9262 174.374 32.4451 180.18 26.5458C183.334 23.3404 187.444 21.6635 193.653 20.7382Z" fill="white"/>
<path d="M382.151 114.616C390.874 114.616 404.41 113.342 411.327 116.882C418.329 120.464 420.195 127.449 420.475 132.543C420.779 138.185 419.144 145.598 411.713 149.75C405.426 153.262 394.01 152.193 385.875 152.115V159.432C385.907 162.816 387.111 176.3 385.535 178.512C385.132 179.079 384.505 179.061 383.588 179.281L382.484 178.976C380.948 174.608 382.141 165.022 382.141 160.147L382.151 114.616ZM385.875 117.647V149.163C392.806 149.244 403.444 150.182 408.98 147.301C409.695 146.933 410.364 146.536 411.034 146.14C417.267 140.313 417.848 132.298 415.03 125.771C413.901 123.162 411.752 120.337 407.511 118.871C401.798 116.896 392.424 117.579 385.875 117.647Z" fill="white"/>
<path d="M177.953 114.616C187.015 114.62 200.842 113.246 207.802 117.137C214.641 120.956 216.347 127.827 216.51 133.038C216.687 138.578 215.045 145.782 207.639 149.811C201.324 153.248 190.053 152.189 181.964 152.119V159.832C181.925 163.114 182.976 175.326 181.854 177.727C181.443 178.612 181.143 178.721 179.858 179.185L178.498 178.912C176.863 176.76 177.96 121.983 177.953 114.616ZM181.964 117.647V149.163C189.667 149.244 199.759 150.242 205.731 146.918C206.172 146.671 206.607 146.418 207.034 146.161C213.151 140.433 214.025 132.415 211.168 125.969C209.983 123.289 207.968 120.408 203.596 118.886C197.894 116.896 188.509 117.579 181.964 117.647Z" fill="white"/>
<path d="M280.364 114.627C288.148 114.563 298.867 113.806 306.042 115.487C310.676 116.578 313.607 118.932 315.399 121.484C319.696 127.615 319.42 137.212 314.361 143.177C311.682 146.338 308.609 148.041 302.74 149.159C305.43 154.487 319.877 175.957 319.264 179.022L318.149 179.323C317.926 179.281 317.689 179.249 317.476 179.192C312.613 177.893 309.331 168.215 307.671 165.146C304.287 160.03 301.802 154.639 298.694 149.453C293.95 149.308 289.104 149.407 284.346 149.389C284.335 154.041 285.836 175.489 283.489 178.247C282.831 179.019 282.873 179.096 281.376 179.366C279.075 176.746 280.357 122.365 280.364 114.627ZM284.346 117.725V146.239C292.481 146.324 302.173 147.226 308.538 143.789C308.952 143.566 309.349 143.332 309.728 143.088C314.952 138.03 315.692 131.049 313.225 125.399C312.057 122.73 309.756 120.121 305.469 118.638C300.41 116.886 290.201 117.668 284.346 117.725Z" fill="white"/>
<path d="M362.119 20.7332C363.577 20.7244 365.014 20.7849 366.462 20.8918C375.029 21.5251 379.854 24.9521 384.778 28.5661C382.838 31.2911 381.171 34.0887 379.422 36.8545C378.757 36.4181 378.083 35.9857 377.401 35.5571C374.576 33.7829 369.963 31.2861 365.453 31.2617C362.961 31.2486 360.717 31.6752 358.951 32.6922C355.627 34.6048 355.014 38.1522 355.432 40.6684C356.455 46.8201 366.714 48.8337 374.063 52.4125C382.307 56.4304 385.312 61.9845 386.003 67.9175C386.764 74.4452 385.56 82.0702 377.333 87.1217C372.593 90.028 367.861 90.828 361.067 90.913C351.786 89.9289 346.331 87.1182 340.493 83.1924L345.97 74.7744C348.072 76.1231 350.143 77.5037 352.83 78.4984C356.235 79.7622 360.629 80.4595 364.668 79.9037C364.859 79.8778 365.049 79.8495 365.238 79.8188C365.426 79.7857 365.613 79.7515 365.797 79.7161C365.981 79.6784 366.164 79.6382 366.346 79.5958C366.527 79.5533 366.707 79.5084 366.884 79.4612C367.061 79.4117 367.235 79.361 367.407 79.3091C367.58 79.2548 367.748 79.1981 367.914 79.1391C368.081 79.0825 368.245 79.0223 368.406 78.9586C368.566 78.8949 368.724 78.8288 368.88 78.7603C369.034 78.6919 369.185 78.6223 369.333 78.5515C369.482 78.4783 369.626 78.4028 369.765 78.3249C369.907 78.2494 370.045 78.1703 370.179 78.0877C370.311 78.0075 370.44 77.9249 370.565 77.84C370.69 77.755 370.812 77.6677 370.93 77.578C371.048 77.4883 371.16 77.3975 371.266 77.3054C371.375 77.2134 371.48 77.1202 371.581 77.0258C371.68 76.9314 371.775 76.8346 371.864 76.7355C373.45 75.0151 373.56 72.9832 373.093 71.1034C370.427 60.3491 350.083 61.4925 344.001 49.3222C340.561 42.4427 341.194 32.6565 347.952 26.4509C351.432 23.2526 355.694 21.5626 362.119 20.7332Z" fill="white"/>
<path d="M290.898 21.7789H333.558V32.1955H304.262V49.4602H329.247V59.7154H304.262V76.8629C304.191 77.847 304.17 78.4629 304.881 79.3762C314.216 80.0453 324.701 79.5178 334.167 79.4966V89.9111H290.898V21.7789Z" fill="white"/>
<path d="M449.322 20.7368C459.807 20.9371 465.166 23.3733 472.062 27.4729L467.743 35.9458C463.347 33.7135 457.768 31.1357 451.463 31.3177C448.033 31.4168 445.24 32.3945 443.088 33.8615C433.877 40.1445 435.264 57.8251 436.387 65.6661C437.034 70.2043 438.252 76.6718 445.013 79.6984C446.819 80.5056 448.907 80.9197 451.24 80.6578C454.943 80.2365 457.609 78.4453 459.506 76.7497V64.1298H448.865V54.8799H472.936C472.862 62.3421 475.818 77.9993 469.489 84.0986C466.062 87.4013 460.614 89.7023 453.966 90.5519C448.497 91.2528 442.865 90.8741 438.202 89.0439C430.114 85.8686 426.595 79.3374 424.814 74.1195C420.719 62.1332 419.972 37.0927 432.832 26.8658C437.385 23.2438 441.573 21.558 449.322 20.7368Z" fill="white"/>
<path d="M631.944 20.696C634.347 20.804 636.631 20.9268 638.843 21.5105C643.342 22.6982 645.619 25.2455 647.183 27.7645C654.238 39.1281 655 74.9442 645.148 85.7658C642.496 88.6792 639.852 90.0279 634.326 91.0156C631.753 90.8492 629.172 90.7465 626.868 90.0244C621.405 88.3146 619.207 84.6791 617.717 81.4648C612.258 69.6803 610.828 34.7439 622.099 24.6158C624.669 22.3059 627.307 21.3261 631.944 20.696ZM630.252 24.1421C622.482 27.5033 620.57 33.0822 619.388 38.2969C617.094 48.4088 615.115 77.6877 626.354 85.5817C627.728 86.5446 629.586 87.3659 631.813 87.5464C633.077 87.6491 634.539 87.5606 635.817 87.5287C643.332 84.3038 645.318 79.2559 646.539 74.2221C648.851 64.6784 650.447 33.6267 640.698 26.4158C638.829 25.0335 636.836 24.3071 633.753 24.1379C632.578 24.0735 631.427 24.106 630.252 24.1421Z" fill="white"/>
<path d="M485.613 21.7789H498.924L525.604 71.8716C524.779 55.1383 523.749 38.5288 523.774 21.7789H536.769L536.773 89.9111H523.629C515.427 73.2592 506.078 56.6604 496.909 40.1629C497.66 56.7772 499.086 73.2734 498.991 89.9111H485.613V21.7789Z" fill="white"/>
<path d="M229.388 21.7789C238.748 21.7102 252.157 20.6949 260.455 23.3393C268.558 25.922 272.933 31.4482 275.312 36.3015C281.801 49.5522 281.422 71.5246 269.078 83.5852C267.861 84.5304 266.639 85.4968 265.17 86.3251C256.182 91.3873 241.06 89.9784 229.388 89.9111V21.7789ZM242.847 32.1955V79.5461C247.506 79.5745 252.88 79.8825 256.607 77.978C257.736 77.401 258.745 76.7284 259.743 76.077C267.135 67.4006 268.023 48.3769 262.558 39.2619C261.096 36.818 258.359 33.8756 253.934 32.7722C250.621 31.9456 246.401 32.1488 242.847 32.1955Z" fill="white"/>
<path d="M37.7742 129.485H37.8212C38.631 129.501 39.4476 129.464 40.2574 129.424C41.0672 129.384 41.8803 129.313 42.6901 129.222C43.4999 129.132 44.2997 129.017 45.0994 128.886C45.8991 128.755 46.6854 128.581 47.4683 128.389C48.2512 128.198 49.0207 127.976 49.7835 127.717C50.5462 127.458 51.2922 127.193 52.0281 126.884C52.764 126.575 53.4898 126.235 54.1954 125.876C54.901 125.516 55.5932 125.106 56.2653 124.673C56.9373 124.239 57.6093 123.769 58.2276 123.268C58.8674 122.763 59.4808 122.226 60.0656 121.659C60.6556 121.086 61.2164 120.484 61.7457 119.854C65.3277 115.607 67.6193 110.284 68.6341 104.841C69.706 99.0917 67.9923 93.2013 65.2437 88.151C60.6234 79.6665 52.5187 74.7304 43.1438 73.1041C32.2131 71.2089 24.5687 60.3892 25.7179 49.5089C25.7716 49.0049 25.8422 48.5008 25.9296 48.0002C26.6318 44.0312 28.4214 40.335 31.0992 37.3225C33.777 34.3101 37.2381 32.0997 41.0974 30.9372C44.1216 30.0266 47.1121 30.245 50.2001 29.825C54.6109 29.2094 58.7336 27.2786 62.0304 24.2846C65.3272 21.2905 67.645 17.3721 68.6811 13.0409C70.2066 6.61957 74.2691 1.43481 81.1138 0.231864C84.128 -0.300218 87.2327 0.0883824 90.0228 1.34698C92.8129 2.60558 95.159 4.67576 96.7551 7.28753C98.3511 9.89929 99.1231 12.9314 98.9704 15.9885C98.8176 19.0455 97.7471 21.9855 95.8986 24.4252C94.1638 26.6538 91.834 28.3464 89.1782 29.3075C86.5875 30.292 83.8624 30.6751 81.3456 31.8814C77.3476 33.821 74.0744 36.9882 72.0043 40.9203C69.4741 45.6682 68.5971 50.6346 69.79 55.8798C70.4543 58.9497 71.6936 61.8661 73.4425 64.4751C76.6515 69.1559 82.095 72.2439 87.6292 73.2116C90.4249 73.6988 93.0055 73.2855 95.7911 73.1377C98.466 72.9954 101.147 73.2353 103.755 73.85C108.921 75.1068 113.633 77.7821 117.36 81.5742C121.087 85.3663 123.68 90.1243 124.847 95.3115C124.931 95.6946 125.008 96.0776 125.075 96.464C126.378 103.85 124.694 111.45 120.393 117.594C116.092 123.738 109.527 127.922 102.142 129.226C99.0336 129.774 95.9019 129.7 92.8139 130.449C90.4707 131.009 88.1982 131.831 86.0398 132.902C82.4027 134.729 79.2115 137.333 76.6918 140.529C73.5304 144.603 71.3296 149.337 70.2537 154.38C69.1247 159.585 70.0084 164.968 69.0877 170.196C68.0609 176.021 65.5668 181.489 61.8407 186.082C58.1145 190.676 53.2794 194.244 47.7915 196.45C42.3036 198.656 36.3441 199.427 30.4753 198.691C24.6066 197.955 19.0223 195.735 14.2494 192.242C9.47659 188.749 5.67266 184.097 3.19666 178.725C0.720665 173.354 -0.345715 167.44 0.0981688 161.542C0.542053 155.644 2.48156 149.956 5.73363 145.015C8.9857 140.075 13.4431 136.045 18.685 133.305C19.5183 132.857 20.3673 132.457 21.232 132.105C22.0967 131.754 22.9692 131.429 23.8496 131.131C24.7255 130.844 25.6148 130.595 26.5176 130.382C27.4204 130.169 28.3243 129.992 29.2293 129.851C30.1432 129.706 31.0639 129.599 31.9846 129.515C32.9053 129.431 33.8394 129.401 34.7702 129.39C35.2709 129.39 35.7782 129.39 36.289 129.39C36.7997 129.39 37.2769 129.471 37.7742 129.485Z" fill="white"/>
</svg>
