<svg width="1096" height="265" viewBox="0 0 1096 265" fill="none" xmlns="http://www.w3.org/2000/svg">
<path d="M50.0153 172.02C50.0153 172.02 50.0553 172.02 50.0753 172.02C51.1453 172.04 52.2352 171.99 53.3052 171.94C54.3752 171.89 55.4553 171.8 56.5253 171.68C57.5953 171.56 58.6553 171.41 59.7153 171.22C60.7753 171.03 61.8152 170.81 62.8552 170.56C63.8952 170.31 64.9052 170.01 65.9252 169.68C66.9452 169.35 67.9252 168.98 68.9052 168.57C69.8852 168.16 70.8353 167.71 71.7753 167.22C72.7153 166.73 73.6253 166.2 74.5153 165.62C75.4053 165.04 76.2752 164.42 77.1152 163.76C77.9552 163.1 78.7752 162.38 79.5452 161.63C80.3152 160.88 81.0753 160.07 81.7753 159.24C86.5253 153.62 89.5553 146.57 90.8953 139.36C92.3153 131.74 90.0452 123.94 86.4052 117.26C80.2852 106.03 69.5553 99.49 57.1453 97.34C42.6653 94.83 32.5453 80.5 34.0653 66.1C34.1353 65.43 34.2252 64.76 34.3452 64.1C35.5852 57.06 39.4652 50.65 45.1152 46.29C47.8952 44.15 51.0652 42.51 54.4252 41.5C58.4252 40.3 62.3852 40.58 66.4752 40.03C78.3952 38.41 88.1552 29.4799 90.9352 17.7999C92.9552 9.29994 98.3353 2.42995 107.385 0.83995C118.355 -1.09005 128.815 6.22993 130.745 17.1999C131.715 22.6999 130.325 28.4399 126.955 32.8899C124.675 35.8999 121.565 38.02 118.055 39.35C114.625 40.66 111.015 41.1599 107.685 42.7599C102.365 45.3099 98.0853 49.5299 95.3153 54.7299C91.9653 61.0199 90.8053 67.59 92.3853 74.54C93.3053 78.58 94.8752 82.4999 97.2252 85.9199C101.475 92.1199 108.685 96.2099 116.015 97.4899C119.715 98.1399 123.135 97.5899 126.825 97.3899C130.515 97.1899 133.955 97.52 137.415 98.35C151.265 101.64 162.305 112.86 165.345 126.77C165.455 127.28 165.555 127.79 165.645 128.3C169.235 148.67 155.635 168.09 135.265 171.68C131.155 172.41 127.005 172.31 122.915 173.3C119.815 174.05 116.795 175.12 113.945 176.55C109.135 178.97 104.895 182.42 101.565 186.65C97.3653 191.98 94.4752 198.37 93.0352 204.99C91.5352 211.88 92.7152 219.01 91.4952 225.93C87.0752 251 63.1752 267.74 38.0952 263.32C13.0252 258.9 -3.70477 234.99 0.705235 209.92C3.17523 195.93 12.1652 183.66 24.7452 177.07C25.8452 176.49 26.9752 175.96 28.1152 175.48C29.2552 175 30.4053 174.57 31.5753 174.19C32.7453 173.81 33.9153 173.48 35.1053 173.2C36.2953 172.92 37.4953 172.68 38.6953 172.49C39.8953 172.3 41.1252 172.16 42.3452 172.06C43.5652 171.96 44.8052 171.91 46.0352 171.9C46.6952 171.9 47.3752 171.9 48.0452 171.92C48.7152 171.94 49.3553 171.99 50.0153 172.01V172.02Z" fill="white"/>
<path d="M91.5253 68.5299C91.5153 68.1699 91.5052 67.9599 91.5052 67.8999V67.8499C91.5152 68.0799 91.5253 68.2999 91.5253 68.5299Z" fill="white"/>
<path d="M285.905 46.6782C285.363 42.1049 283.167 38.5545 279.316 36.0272C275.465 33.4998 270.741 32.2361 265.145 32.2361C261.053 32.2361 257.472 32.8981 254.403 34.2219C251.364 35.5458 248.988 37.3661 247.273 39.6828C245.588 41.9996 244.745 44.6322 244.745 47.5808C244.745 50.048 245.332 52.1692 246.505 53.9443C247.709 55.6894 249.243 57.1487 251.109 58.3221C252.974 59.4654 254.93 60.4132 256.976 61.1654C259.022 61.8875 260.902 62.4742 262.617 62.9255L272.005 65.4528C274.412 66.0847 277.089 66.9572 280.038 68.0705C283.017 69.1837 285.86 70.7031 288.568 72.6287C291.306 74.5242 293.562 76.9613 295.337 79.94C297.113 82.9187 298 86.5743 298 90.9069C298 95.9015 296.691 100.415 294.074 104.446C291.486 108.478 287.695 111.682 282.701 114.059C277.736 116.436 271.704 117.625 264.603 117.625C257.984 117.625 252.252 116.557 247.408 114.42C242.594 112.284 238.803 109.306 236.035 105.484C233.297 101.663 231.747 97.2253 231.386 92.1706H242.94C243.241 95.6608 244.414 98.5492 246.46 100.836C248.536 103.092 251.154 104.777 254.313 105.891C257.502 106.974 260.932 107.515 264.603 107.515C268.875 107.515 272.712 106.823 276.112 105.439C279.511 104.025 282.204 102.069 284.19 99.5722C286.176 97.0448 287.169 94.0962 287.169 90.7264C287.169 87.6575 286.311 85.1602 284.596 83.2346C282.881 81.309 280.625 79.7444 277.827 78.5409C275.028 77.3374 272.005 76.2844 268.755 75.3817L257.382 72.1323C250.161 70.0562 244.444 67.0926 240.232 63.2414C236.02 59.3902 233.914 54.3505 233.914 48.1224C233.914 42.9473 235.313 38.4342 238.111 34.583C240.939 30.7017 244.73 27.6929 249.484 25.5567C254.268 23.3904 259.608 22.3072 265.506 22.3072C271.463 22.3072 276.758 23.3753 281.392 25.5116C286.025 27.6177 289.696 30.5061 292.404 34.1768C295.142 37.8475 296.586 42.0146 296.737 46.6782H285.905Z" fill="white"/>
<path d="M344.926 116H316.403V23.5709H346.189C355.155 23.5709 362.828 25.4213 369.206 29.1221C375.585 32.7928 380.474 38.0731 383.874 44.9632C387.274 51.8232 388.974 60.0371 388.974 69.6049C388.974 79.233 387.259 87.5221 383.829 94.4723C380.399 101.392 375.404 106.718 368.845 110.449C362.286 114.15 354.313 116 344.926 116ZM327.595 106.071H344.203C351.846 106.071 358.179 104.597 363.204 101.648C368.228 98.6996 371.974 94.5024 374.442 89.0566C376.909 83.6107 378.142 77.1268 378.142 69.6049C378.142 62.1432 376.924 55.7195 374.487 50.3338C372.05 44.9181 368.409 40.766 363.565 37.8776C358.721 34.9591 352.688 33.4998 345.467 33.4998H327.595V106.071Z" fill="white"/>
<path d="M407.749 116V23.5709H463.531V33.4998H418.941V64.7307H460.642V74.6596H418.941V106.071H464.253V116H407.749Z" fill="white"/>
<path d="M534.252 46.6782C533.71 42.1049 531.514 38.5545 527.663 36.0272C523.811 33.4998 519.088 32.2361 513.491 32.2361C509.399 32.2361 505.819 32.8981 502.75 34.2219C499.711 35.5458 497.334 37.3661 495.619 39.6828C493.934 41.9996 493.092 44.6322 493.092 47.5808C493.092 50.048 493.679 52.1692 494.852 53.9443C496.056 55.6894 497.59 57.1487 499.455 58.3221C501.321 59.4654 503.277 60.4132 505.323 61.1654C507.369 61.8875 509.249 62.4742 510.964 62.9255L520.351 65.4528C522.758 66.0847 525.436 66.9572 528.385 68.0705C531.363 69.1837 534.207 70.7031 536.915 72.6287C539.653 74.5242 541.909 76.9613 543.684 79.94C545.459 82.9187 546.347 86.5743 546.347 90.9069C546.347 95.9015 545.038 100.415 542.421 104.446C539.833 108.478 536.042 111.682 531.047 114.059C526.083 116.436 520.05 117.625 512.95 117.625C506.33 117.625 500.599 116.557 495.755 114.42C490.941 112.284 487.15 109.306 484.382 105.484C481.644 101.663 480.094 97.2253 479.733 92.1706H491.287C491.588 95.6608 492.761 98.5492 494.807 100.836C496.883 103.092 499.501 104.777 502.66 105.891C505.849 106.974 509.279 107.515 512.95 107.515C517.222 107.515 521.058 106.823 524.458 105.439C527.858 104.025 530.551 102.069 532.537 99.5722C534.523 97.0448 535.515 94.0962 535.515 90.7264C535.515 87.6575 534.658 85.1602 532.943 83.2346C531.228 81.309 528.971 79.7444 526.173 78.5409C523.375 77.3374 520.351 76.2844 517.102 75.3817L505.729 72.1323C498.508 70.0562 492.791 67.0926 488.579 63.2414C484.367 59.3902 482.26 54.3505 482.26 48.1224C482.26 42.9473 483.659 38.4342 486.458 34.583C489.286 30.7017 493.077 27.6929 497.831 25.5567C502.615 23.3904 507.955 22.3072 513.852 22.3072C519.81 22.3072 525.105 23.3753 529.739 25.5116C534.372 27.6177 538.043 30.5061 540.751 34.1768C543.489 37.8475 544.933 42.0146 545.083 46.6782H534.252Z" fill="white"/>
<path d="M575.942 23.5709V116H564.749V23.5709H575.942Z" fill="white"/>
<path d="M661.567 52.455C660.575 49.4162 659.266 46.6932 657.641 44.2862C656.046 41.8491 654.136 39.7731 651.909 38.0581C649.713 36.3431 647.216 35.0343 644.418 34.1317C641.619 33.229 638.55 32.7777 635.211 32.7777C629.735 32.7777 624.755 34.1918 620.272 37.0201C615.789 39.8483 612.224 44.0154 609.576 49.5215C606.928 55.0275 605.605 61.7822 605.605 69.7855C605.605 77.7888 606.943 84.5434 609.621 90.0495C612.299 95.5555 615.925 99.7226 620.498 102.551C625.071 105.379 630.216 106.793 635.933 106.793C641.228 106.793 645.892 105.665 649.924 103.408C653.985 101.122 657.145 97.9023 659.401 93.7502C661.688 89.568 662.831 84.6487 662.831 78.9923L666.261 79.7144H638.46V69.7855H673.663V79.7144C673.663 87.3265 672.038 93.9458 668.788 99.5722C665.569 105.199 661.116 109.561 655.43 112.66C649.773 115.729 643.274 117.264 635.933 117.264C627.749 117.264 620.558 115.338 614.36 111.487C608.192 107.636 603.378 102.16 599.918 95.059C596.488 87.9584 594.773 79.5338 594.773 69.7855C594.773 62.4742 595.751 55.9 597.707 50.063C599.692 44.196 602.49 39.2014 606.101 35.0794C609.711 30.9574 613.984 27.7982 618.918 25.6018C623.853 23.4054 629.283 22.3072 635.211 22.3072C640.085 22.3072 644.628 23.0444 648.84 24.5187C653.083 25.9629 656.859 28.0239 660.168 30.7017C663.508 33.3494 666.291 36.5236 668.518 40.2244C670.744 43.8951 672.279 47.972 673.121 52.455H661.567Z" fill="white"/>
<path d="M766.126 23.5709V116H755.294L704.927 43.4287H704.025V116H692.832V23.5709H703.664L754.211 96.3227H755.114V23.5709H766.126Z" fill="white"/>
<path d="M758.164 116V107.876L788.672 74.4791C792.253 70.5677 795.201 67.1678 797.518 64.2794C799.835 61.3609 801.55 58.623 802.663 56.0655C803.806 53.478 804.378 50.7701 804.378 47.9419C804.378 44.6924 803.596 41.8792 802.031 39.5023C800.497 37.1254 798.391 35.29 795.713 33.9963C793.035 32.7025 790.026 32.0556 786.687 32.0556C783.136 32.0556 780.037 32.7928 777.39 34.267C774.772 35.7113 772.741 37.7422 771.297 40.3598C769.883 42.9774 769.176 46.0463 769.176 49.5666H758.525C758.525 44.1508 759.773 39.397 762.271 35.3051C764.768 31.2132 768.168 28.0239 772.47 25.7372C776.803 23.4506 781.662 22.3072 787.048 22.3072C792.463 22.3072 797.262 23.4506 801.445 25.7372C805.627 28.0239 808.906 31.1078 811.283 34.9892C813.66 38.8705 814.849 43.188 814.849 47.9419C814.849 51.3418 814.232 54.6664 812.998 57.9159C811.795 61.1353 809.689 64.7307 806.68 68.7023C803.701 72.6438 799.564 77.4578 794.269 83.1443L773.508 105.349V106.071H816.473V116H758.164Z" fill="white"/>
<path d="M865.26 117.264C858.461 117.264 852.669 115.413 847.885 111.713C843.101 107.982 839.445 102.581 836.918 95.5103C834.39 88.4097 833.127 79.8347 833.127 69.7855C833.127 59.7964 834.39 51.2665 836.918 44.196C839.475 37.0953 843.146 31.6795 847.93 27.9487C852.744 24.1877 858.521 22.3072 865.26 22.3072C872 22.3072 877.762 24.1877 882.546 27.9487C887.36 31.6795 891.03 37.0953 893.558 44.196C896.115 51.2665 897.394 59.7964 897.394 69.7855C897.394 79.8347 896.13 88.4097 893.603 95.5103C891.075 102.581 887.42 107.982 882.636 111.713C877.852 115.413 872.06 117.264 865.26 117.264ZM865.26 107.335C872 107.335 877.235 104.085 880.966 97.5864C884.697 91.0875 886.562 81.8205 886.562 69.7855C886.562 61.7822 885.705 54.9673 883.99 49.3409C882.305 43.7146 879.868 39.4271 876.679 36.4785C873.519 33.5299 869.713 32.0556 865.26 32.0556C858.581 32.0556 853.361 35.3502 849.6 41.9394C845.839 48.4985 843.958 57.7805 843.958 69.7855C843.958 77.7888 844.801 84.5886 846.486 90.1848C848.171 95.7811 850.593 100.039 853.752 102.957C856.941 105.876 860.777 107.335 865.26 107.335Z" fill="white"/>
<path d="M914.544 116V107.876L945.053 74.4791C948.633 70.5677 951.582 67.1678 953.898 64.2794C956.215 61.3609 957.93 58.623 959.043 56.0655C960.187 53.478 960.758 50.7701 960.758 47.9419C960.758 44.6924 959.976 41.8792 958.412 39.5023C956.877 37.1254 954.771 35.29 952.093 33.9963C949.415 32.7025 946.407 32.0556 943.067 32.0556C939.516 32.0556 936.417 32.7928 933.77 34.267C931.152 35.7113 929.121 37.7422 927.677 40.3598C926.263 42.9774 925.556 46.0463 925.556 49.5666H914.905C914.905 44.1508 916.153 39.397 918.651 35.3051C921.148 31.2132 924.548 28.0239 928.85 25.7372C933.183 23.4506 938.042 22.3072 943.428 22.3072C948.844 22.3072 953.643 23.4506 957.825 25.7372C962.007 28.0239 965.287 31.1078 967.663 34.9892C970.04 38.8705 971.229 43.188 971.229 47.9419C971.229 51.3418 970.612 54.6664 969.378 57.9159C968.175 61.1353 966.069 64.7307 963.06 68.7023C960.081 72.6438 955.944 77.4578 950.649 83.1443L929.888 105.349V106.071H972.854V116H914.544Z" fill="white"/>
<path d="M987.341 97.0448V87.838L1027.96 23.5709H1034.64V37.8324H1030.13L999.436 86.3938V87.1159H1054.14V97.0448H987.341ZM1030.85 116V23.5709H1041.5V116H1030.85Z" fill="white"/>
<path d="M233.367 234.79V147.161H262.976C269.85 147.161 275.47 148.402 279.834 150.883C284.227 153.337 287.479 156.66 289.59 160.853C291.701 165.046 292.756 169.724 292.756 174.887C292.756 180.05 291.701 184.743 289.59 188.964C287.507 193.186 284.284 196.552 279.92 199.062C275.555 201.544 269.964 202.785 263.147 202.785H241.924V193.372H262.805C267.511 193.372 271.291 192.559 274.143 190.933C276.996 189.307 279.064 187.11 280.348 184.343C281.66 181.548 282.316 178.396 282.316 174.887C282.316 171.379 281.66 168.241 280.348 165.474C279.064 162.707 276.982 160.539 274.101 158.97C271.22 157.373 267.397 156.574 262.633 156.574H243.978V234.79H233.367Z" fill="white"/>
<path d="M309.85 234.79V147.161H362.735V156.574H320.461V186.183H359.997V195.597H320.461V225.377H363.42V234.79H309.85Z" fill="white"/>
<path d="M381.861 234.79V147.161H411.47C418.316 147.161 423.936 148.33 428.329 150.67C432.721 152.98 435.973 156.161 438.084 160.211C440.195 164.262 441.25 168.869 441.25 174.032C441.25 179.195 440.195 183.773 438.084 187.766C435.973 191.76 432.736 194.898 428.371 197.18C424.007 199.433 418.43 200.56 411.641 200.56H387.68V190.975H411.299C415.977 190.975 419.743 190.291 422.595 188.922C425.476 187.552 427.558 185.613 428.842 183.103C430.154 180.564 430.81 177.54 430.81 174.032C430.81 170.523 430.154 167.457 428.842 164.832C427.53 162.208 425.433 160.183 422.552 158.756C419.671 157.302 415.863 156.574 411.128 156.574H392.473V234.79H381.861ZM423.108 195.425L444.673 234.79H432.351L411.128 195.425H423.108Z" fill="white"/>
<path d="M506.855 169.068C506.341 164.732 504.259 161.366 500.608 158.97C496.956 156.574 492.478 155.376 487.172 155.376C483.293 155.376 479.898 156.004 476.989 157.259C474.108 158.514 471.854 160.24 470.228 162.436C468.631 164.633 467.832 167.129 467.832 169.924C467.832 172.263 468.388 174.274 469.501 175.957C470.642 177.611 472.097 178.995 473.865 180.107C475.634 181.191 477.488 182.09 479.428 182.803C481.367 183.488 483.15 184.044 484.776 184.472L493.676 186.868C495.958 187.467 498.497 188.294 501.292 189.35C504.116 190.405 506.812 191.846 509.379 193.671C511.975 195.468 514.114 197.779 515.797 200.603C517.48 203.427 518.322 206.892 518.322 211C518.322 215.735 517.081 220.014 514.599 223.836C512.146 227.659 508.552 230.697 503.817 232.95C499.11 235.204 493.391 236.33 486.659 236.33C480.383 236.33 474.949 235.318 470.357 233.292C465.793 231.267 462.199 228.443 459.574 224.821C456.978 221.198 455.509 216.99 455.167 212.198H466.121C466.406 215.507 467.518 218.245 469.458 220.413C471.426 222.553 473.908 224.15 476.903 225.206C479.927 226.233 483.179 226.746 486.659 226.746C490.709 226.746 494.346 226.09 497.57 224.778C500.793 223.437 503.346 221.583 505.229 219.215C507.111 216.819 508.053 214.024 508.053 210.829C508.053 207.919 507.24 205.552 505.614 203.726C503.988 201.901 501.848 200.417 499.196 199.276C496.543 198.135 493.676 197.137 490.595 196.281L479.813 193.2C472.967 191.232 467.547 188.422 463.553 184.771C459.56 181.12 457.563 176.342 457.563 170.437C457.563 165.531 458.89 161.252 461.542 157.601C464.224 153.921 467.818 151.069 472.325 149.044C476.86 146.99 481.924 145.963 487.515 145.963C493.163 145.963 498.183 146.976 502.576 149.001C506.969 150.998 510.449 153.736 513.016 157.216C515.612 160.696 516.981 164.647 517.124 169.068H506.855Z" fill="white"/>
<path d="M535.768 234.79V147.161H565.377C572.252 147.161 577.871 148.402 582.236 150.883C586.629 153.337 589.88 156.66 591.991 160.853C594.102 165.046 595.158 169.724 595.158 174.887C595.158 180.05 594.102 184.743 591.991 188.964C589.909 193.186 586.686 196.552 582.321 199.062C577.957 201.544 572.366 202.785 565.549 202.785H544.326V193.372H565.206C569.913 193.372 573.692 192.559 576.545 190.933C579.397 189.307 581.466 187.11 582.749 184.343C584.061 181.548 584.717 178.396 584.717 174.887C584.717 171.379 584.061 168.241 582.749 165.474C581.466 162.707 579.383 160.539 576.502 158.97C573.621 157.373 569.799 156.574 565.035 156.574H546.38V234.79H535.768Z" fill="white"/>
<path d="M612.251 234.79V147.161H665.137V156.574H622.863V186.183H662.398V195.597H622.863V225.377H665.821V234.79H612.251Z" fill="white"/>
<path d="M754.777 174.545H744.166C743.538 171.493 742.44 168.811 740.871 166.501C739.331 164.19 737.448 162.251 735.223 160.682C733.027 159.084 730.588 157.886 727.906 157.088C725.225 156.289 722.429 155.89 719.52 155.89C714.214 155.89 709.408 157.23 705.1 159.912C700.822 162.593 697.413 166.544 694.874 171.764C692.364 176.984 691.109 183.388 691.109 190.975C691.109 198.563 692.364 204.967 694.874 210.187C697.413 215.407 700.822 219.358 705.1 222.039C709.408 224.721 714.214 226.061 719.52 226.061C722.429 226.061 725.225 225.662 727.906 224.863C730.588 224.065 733.027 222.881 735.223 221.312C737.448 219.715 739.331 217.761 740.871 215.45C742.44 213.111 743.538 210.43 744.166 207.406H754.777C753.978 211.884 752.523 215.892 750.413 219.429C748.302 222.966 745.677 225.976 742.54 228.457C739.402 230.911 735.879 232.779 731.971 234.063C728.092 235.346 723.941 235.988 719.52 235.988C712.046 235.988 705.4 234.162 699.581 230.511C693.762 226.86 689.183 221.668 685.846 214.937C682.509 208.205 680.84 200.218 680.84 190.975C680.84 181.733 682.509 173.746 685.846 167.014C689.183 160.282 693.762 155.091 699.581 151.44C705.4 147.788 712.046 145.963 719.52 145.963C723.941 145.963 728.092 146.605 731.971 147.888C735.879 149.172 739.402 151.055 742.54 153.536C745.677 155.989 748.302 158.985 750.413 162.522C752.523 166.03 753.978 170.038 754.777 174.545Z" fill="white"/>
<path d="M767.132 156.574V147.161H832.854V156.574H805.298V234.79H794.687V156.574H767.132Z" fill="white"/>
<path d="M859.842 147.161V234.79H849.231V147.161H859.842Z" fill="white"/>
<path d="M884.712 147.161L910.727 220.927H911.754L937.769 147.161H948.894L916.717 234.79H905.764L873.587 147.161H884.712Z" fill="white"/>
<path d="M958.607 234.79H947.482L979.658 147.161H990.612L1022.79 234.79H1011.66L985.477 161.024H984.793L958.607 234.79ZM962.714 200.56H1007.56V209.973H962.714V200.56Z" fill="white"/>
<path d="M1084.36 169.068C1083.85 164.732 1081.76 161.366 1078.11 158.97C1074.46 156.574 1069.98 155.376 1064.68 155.376C1060.8 155.376 1057.4 156.004 1054.49 157.259C1051.61 158.514 1049.36 160.24 1047.73 162.436C1046.14 164.633 1045.34 167.129 1045.34 169.924C1045.34 172.263 1045.89 174.274 1047.01 175.957C1048.15 177.611 1049.6 178.995 1051.37 180.107C1053.14 181.191 1054.99 182.09 1056.93 182.803C1058.87 183.488 1060.66 184.044 1062.28 184.472L1071.18 186.868C1073.46 187.467 1076 188.294 1078.8 189.35C1081.62 190.405 1084.32 191.846 1086.88 193.671C1089.48 195.468 1091.62 197.779 1093.3 200.603C1094.98 203.427 1095.83 206.892 1095.83 211C1095.83 215.735 1094.59 220.014 1092.1 223.836C1089.65 227.659 1086.06 230.697 1081.32 232.95C1076.61 235.204 1070.9 236.33 1064.16 236.33C1057.89 236.33 1052.45 235.318 1047.86 233.292C1043.3 231.267 1039.7 228.443 1037.08 224.821C1034.48 221.198 1033.01 216.99 1032.67 212.198H1043.63C1043.91 215.507 1045.02 218.245 1046.96 220.413C1048.93 222.553 1051.41 224.15 1054.41 225.206C1057.43 226.233 1060.68 226.746 1064.16 226.746C1068.21 226.746 1071.85 226.09 1075.07 224.778C1078.3 223.437 1080.85 221.583 1082.73 219.215C1084.62 216.819 1085.56 214.024 1085.56 210.829C1085.56 207.919 1084.74 205.552 1083.12 203.726C1081.49 201.901 1079.35 200.417 1076.7 199.276C1074.05 198.135 1071.18 197.137 1068.1 196.281L1057.32 193.2C1050.47 191.232 1045.05 188.422 1041.06 184.771C1037.06 181.12 1035.07 176.342 1035.07 170.437C1035.07 165.531 1036.39 161.252 1039.05 157.601C1041.73 153.921 1045.32 151.069 1049.83 149.044C1054.37 146.99 1059.43 145.963 1065.02 145.963C1070.67 145.963 1075.69 146.976 1080.08 149.001C1084.47 150.998 1087.95 153.736 1090.52 157.216C1093.12 160.696 1094.49 164.647 1094.63 169.068H1084.36Z" fill="white"/>
</svg>
