<svg width="2169" height="706" viewBox="0 0 2169 706" fill="none" xmlns="http://www.w3.org/2000/svg">
<path d="M478.65 537.52C475.584 539.62 472.251 541.301 468.74 542.52C465.4 544.61 440 562.2 452.36 597C458.235 606.103 461.071 616.836 460.459 627.653C459.847 638.47 455.82 648.814 448.957 657.197C442.093 665.581 432.747 671.57 422.264 674.305C411.78 677.04 400.699 676.378 390.615 672.416C380.531 668.453 371.965 661.394 366.147 652.254C360.33 643.114 357.562 632.364 358.242 621.551C358.921 610.738 363.014 600.419 369.93 592.079C376.846 583.739 386.229 577.809 396.73 575.14C402.34 572.41 429.01 557.41 418.6 523.21C419.645 524.966 420.825 526.638 422.13 528.21C421.69 527.64 421.26 527.04 420.85 526.44C416.222 519.637 413.716 511.614 413.647 503.387C413.579 495.159 415.952 487.096 420.466 480.217C424.981 473.338 431.434 467.952 439.009 464.741C446.584 461.53 454.942 460.637 463.024 462.175C471.107 463.714 478.552 467.614 484.418 473.384C490.284 479.154 494.307 486.534 495.978 494.59C497.65 502.647 496.895 511.018 493.809 518.645C490.722 526.272 485.444 532.813 478.64 537.44L478.65 537.52Z" fill="url(#paint0_linear_4716_1456)"/>
<path d="M120.64 450.77H120.78C123.19 450.82 125.62 450.71 128.03 450.59C130.44 450.47 132.86 450.26 135.27 449.99C137.68 449.72 140.06 449.38 142.44 448.99C144.82 448.6 147.16 448.08 149.49 447.51C151.82 446.94 154.11 446.28 156.38 445.51C158.65 444.74 160.87 443.95 163.06 443.03C165.25 442.11 167.41 441.1 169.51 440.03C171.61 438.96 173.67 437.74 175.67 436.45C177.67 435.16 179.67 433.76 181.51 432.27C183.414 430.768 185.24 429.169 186.98 427.48C188.736 425.775 190.405 423.983 191.98 422.11C202.64 409.47 209.46 393.63 212.48 377.43C215.67 360.32 210.57 342.79 202.39 327.76C188.64 302.51 164.52 287.82 136.62 282.98C104.09 277.34 81.3401 245.14 84.7601 212.76C84.9201 211.26 85.1301 209.76 85.3901 208.27C87.4799 196.458 92.8058 185.458 100.775 176.493C108.744 167.528 119.045 160.95 130.53 157.49C139.53 154.78 148.43 155.43 157.62 154.18C170.747 152.348 183.016 146.602 192.827 137.692C202.639 128.781 209.536 117.12 212.62 104.23C217.16 85.12 229.25 69.69 249.62 66.11C258.591 64.5265 267.83 65.683 276.134 69.4286C284.437 73.1743 291.419 79.3352 296.169 87.1079C300.919 94.8806 303.216 103.904 302.762 113.002C302.307 122.1 299.121 130.85 293.62 138.11C288.457 144.743 281.524 149.78 273.62 152.64C265.91 155.57 257.8 156.71 250.31 160.3C238.412 166.072 228.671 175.498 222.51 187.2C214.98 201.33 212.37 216.11 215.92 231.72C217.897 240.856 221.585 249.536 226.79 257.3C236.34 271.23 252.54 280.42 269.01 283.3C277.33 284.75 285.01 283.52 293.3 283.08C301.261 282.657 309.241 283.37 317 285.2C332.375 288.94 346.399 296.902 357.49 308.187C368.581 319.473 376.298 333.633 379.77 349.07C380.02 350.21 380.25 351.35 380.45 352.5C384.328 374.48 379.316 397.099 366.516 415.384C353.717 433.669 334.179 446.12 312.2 450C302.95 451.63 293.63 451.41 284.44 453.64C277.466 455.306 270.703 457.755 264.28 460.94C253.456 466.378 243.959 474.127 236.46 483.64C227.052 495.762 220.502 509.853 217.3 524.86C213.94 540.35 216.57 556.37 213.83 571.93C210.774 589.265 203.352 605.536 192.263 619.206C181.174 632.876 166.784 643.495 150.452 650.061C134.12 656.627 116.384 658.922 98.9185 656.731C81.453 654.54 64.8338 647.935 50.6297 637.538C36.4255 627.142 25.1049 613.297 17.7363 597.311C10.3676 581.326 7.19404 563.726 8.51505 546.173C9.83607 528.62 15.6081 511.694 25.2864 496.991C34.9646 482.288 48.2299 470.293 63.8301 462.14C66.3101 460.807 68.8368 459.617 71.4101 458.57C73.9834 457.523 76.5801 456.557 79.2001 455.67C81.8068 454.817 84.4534 454.073 87.1401 453.44C89.8268 452.807 92.5168 452.28 95.2101 451.86C97.9301 451.43 100.67 451.11 103.41 450.86C106.15 450.61 108.93 450.52 111.7 450.49C113.19 450.49 114.7 450.49 116.22 450.49C117.74 450.49 119.16 450.73 120.64 450.77Z" fill="url(#paint1_linear_4716_1456)"/>
<path d="M213.92 218.18C213.92 217.38 213.92 216.89 213.92 216.77V216.65C213.91 217.16 213.92 217.66 213.92 218.18Z" fill="url(#paint2_radial_4716_1456)"/>
<path d="M519.48 123.47V123.61C519.43 126.02 519.54 128.45 519.67 130.86C519.8 133.27 519.99 135.69 520.26 138.1C520.53 140.51 520.87 142.89 521.26 145.27C521.65 147.65 522.17 149.99 522.75 152.27C523.33 154.55 523.98 156.89 524.75 159.16C525.52 161.43 526.32 163.65 527.24 165.84C528.16 168.03 529.16 170.19 530.24 172.29C531.32 174.39 532.54 176.45 533.83 178.45C535.12 180.45 536.52 182.45 538 184.29C539.48 186.13 541.1 188.02 542.79 189.76C544.48 191.5 546.29 193.2 548.16 194.76C560.8 205.42 576.64 212.24 592.84 215.26C609.96 218.45 627.49 213.35 642.52 205.17C667.76 191.42 682.46 167.3 687.29 139.4C692.94 106.87 725.13 84.12 757.51 87.54C759.01 87.7 760.51 87.91 762 88.17C773.812 90.2598 784.812 95.5857 793.777 103.555C802.742 111.524 809.32 121.825 812.78 133.31C815.49 142.31 814.85 151.21 816.09 160.4C817.922 173.526 823.668 185.796 832.578 195.607C841.489 205.419 853.15 212.316 866.04 215.4C885.15 219.94 900.59 232.03 904.17 252.4C905.753 261.37 904.597 270.61 900.851 278.913C897.106 287.217 890.945 294.199 883.172 298.949C875.399 303.699 866.376 305.996 857.278 305.542C848.18 305.087 839.43 301.901 832.17 296.4C825.54 291.234 820.504 284.302 817.64 276.4C814.71 268.69 813.57 260.58 809.98 253.09C804.212 241.189 794.785 231.447 783.08 225.29C768.96 217.76 754.17 215.15 738.56 218.7C729.433 220.677 720.762 224.358 713 229.55C699.07 239.1 689.88 255.3 687 271.77C685.55 280.09 686.78 287.77 687.22 296.06C687.639 304.052 686.912 312.064 685.06 319.85C681.322 335.224 673.362 349.247 662.078 360.339C650.794 371.43 636.636 379.147 621.2 382.62C620.06 382.87 618.91 383.1 617.77 383.3C606.882 385.222 595.723 384.98 584.929 382.588C574.134 380.195 563.918 375.699 554.862 369.356C545.806 363.013 538.09 354.948 532.152 345.621C526.215 336.294 522.174 325.889 520.26 315C518.62 305.75 518.85 296.43 516.62 287.24C514.955 280.265 512.503 273.501 509.31 267.08C503.876 256.256 496.13 246.759 486.62 239.26C474.493 229.853 460.4 223.303 445.39 220.1C429.91 216.74 413.88 219.37 398.33 216.63C380.994 213.576 364.722 206.155 351.05 195.067C337.379 183.978 326.758 169.589 320.191 153.257C313.624 136.925 311.327 119.189 313.517 101.723C315.707 84.2564 322.312 67.6364 332.708 53.4313C343.104 39.2262 356.949 27.9047 372.935 20.5354C388.921 13.1661 406.522 9.99208 424.075 11.3129C441.628 12.6338 458.556 18.406 473.259 28.0846C487.962 37.7633 499.957 51.0291 508.11 66.63C509.443 69.11 510.633 71.6367 511.68 74.21C512.76 76.76 513.68 79.36 514.58 82C515.48 84.64 516.17 87.26 516.81 89.94C517.45 92.62 518 95.32 518.4 98C518.8 100.68 519.14 103.46 519.4 106.2C519.66 108.94 519.74 111.72 519.77 114.49C519.77 115.98 519.77 117.49 519.77 119.01C519.77 120.53 519.52 122 519.48 123.47Z" fill="url(#paint3_linear_4716_1456)"/>
<path d="M752.07 216.75H753.49H753.61C753.1 216.74 752.59 216.75 752.07 216.75Z" fill="url(#paint4_radial_4716_1456)"/>
<path d="M1822.15 460.51V460.62C1822.15 462.75 1822.21 464.89 1822.32 467.01C1822.43 469.13 1822.6 471.27 1822.84 473.4C1823.08 475.53 1823.38 477.61 1823.75 479.71C1824.12 481.81 1824.55 483.86 1825.06 485.92C1825.57 487.98 1826.14 489.99 1826.8 491.99C1827.46 493.99 1828.18 495.99 1828.99 497.88C1829.8 499.77 1830.68 501.7 1831.65 503.56C1832.62 505.42 1833.65 507.23 1834.81 508.99C1835.97 510.75 1837.18 512.48 1838.49 514.13C1839.8 515.78 1841.22 517.41 1842.71 518.95C1844.21 520.503 1845.79 521.978 1847.44 523.37C1858.57 532.76 1872.53 538.77 1886.8 541.43C1901.88 544.24 1917.32 539.75 1930.56 532.54C1952.8 520.43 1965.75 499.18 1970.01 474.6C1975.01 445.94 2003.34 425.9 2031.87 428.91C2033.19 429.05 2034.51 429.24 2035.87 429.47C2046.28 431.308 2055.97 435.999 2063.87 443.021C2071.77 450.043 2077.56 459.119 2080.61 469.24C2082.99 477.16 2082.43 485 2083.53 493.1C2085.15 504.658 2090.21 515.46 2098.06 524.098C2105.91 532.735 2116.18 538.806 2127.53 541.52C2144.36 545.52 2157.96 556.16 2161.12 574.09C2162.51 581.994 2161.49 590.135 2158.19 597.451C2154.89 604.767 2149.46 610.917 2142.61 615.101C2135.76 619.284 2127.81 621.306 2119.79 620.903C2111.77 620.499 2104.07 617.69 2097.67 612.84C2091.82 608.29 2087.39 602.177 2084.87 595.21C2082.29 588.42 2081.29 581.28 2078.12 574.68C2073.04 564.198 2064.74 555.614 2054.43 550.18C2041.98 543.55 2028.96 541.25 2015.2 544.38C2007.16 546.13 1999.51 549.376 1992.67 553.95C1980.4 562.37 1972.3 576.64 1969.77 591.15C1968.49 598.48 1969.58 605.25 1969.96 612.55C1970.34 619.604 1969.7 626.676 1968.07 633.55C1964.77 647.095 1957.76 659.45 1947.82 669.221C1937.88 678.992 1925.4 685.79 1911.8 688.85C1910.8 689.07 1909.8 689.27 1908.8 689.44C1899.21 691.132 1889.38 690.919 1879.88 688.812C1870.37 686.706 1861.37 682.747 1853.4 677.162C1845.42 671.578 1838.62 664.476 1833.39 656.264C1828.16 648.052 1824.6 638.889 1822.91 629.3C1821.47 621.15 1821.67 612.95 1819.7 604.85C1818.23 598.706 1816.08 592.748 1813.27 587.09C1808.48 577.552 1801.65 569.184 1793.27 562.58C1782.59 554.289 1770.18 548.519 1756.96 545.7C1743.31 542.7 1729.2 545.06 1715.49 542.64C1700.22 539.948 1685.88 533.409 1673.84 523.64C1661.8 513.871 1652.44 501.194 1646.66 486.807C1640.88 472.419 1638.85 456.794 1640.78 441.408C1642.71 426.021 1648.53 411.38 1657.69 398.867C1666.85 386.353 1679.04 376.38 1693.13 369.888C1707.21 363.396 1722.71 360.6 1738.18 361.763C1753.64 362.926 1768.55 368.01 1781.51 376.536C1794.46 385.062 1805.03 396.747 1812.21 410.49C1813.35 412.67 1814.4 414.897 1815.35 417.17C1816.3 419.443 1817.16 421.73 1817.91 424.03C1818.66 426.33 1819.33 428.663 1819.91 431.03C1820.47 433.38 1820.91 435.76 1821.31 438.15C1821.71 440.54 1821.96 442.95 1822.16 445.36C1822.36 447.77 1822.46 450.23 1822.48 452.67C1822.48 453.98 1822.48 455.33 1822.48 456.67C1822.48 458.01 1822.18 459.21 1822.15 460.51Z" fill="url(#paint5_linear_4716_1456)"/>
<defs>
<linearGradient id="paint0_linear_4716_1456" x1="345.738" y1="608.015" x2="514.083" y2="532.393" gradientUnits="userSpaceOnUse">
<stop stop-color="#F43D29"/>
<stop offset="0.17" stop-color="#F44625"/>
<stop offset="0.46" stop-color="#F4601A"/>
<stop offset="0.57" stop-color="#F46B15"/>
<stop offset="0.87" stop-color="#DF1464"/>
<stop offset="0.99" stop-color="#DF1464"/>
</linearGradient>
<linearGradient id="paint1_linear_4716_1456" x1="102.77" y1="626.04" x2="308.43" y2="103.88" gradientUnits="userSpaceOnUse">
<stop stop-color="#9E005D"/>
<stop offset="0.42" stop-color="#F51B67"/>
<stop offset="0.53" stop-color="#F53849"/>
<stop offset="0.73" stop-color="#F46917"/>
<stop offset="0.83" stop-color="#F47C03"/>
<stop offset="0.86" stop-color="#F48106"/>
<stop offset="0.9" stop-color="#F38E11"/>
<stop offset="0.94" stop-color="#F3A422"/>
<stop offset="0.98" stop-color="#F2C339"/>
<stop offset="1" stop-color="#F1D446"/>
</linearGradient>
<radialGradient id="paint2_radial_4716_1456" cx="0" cy="0" r="1" gradientUnits="userSpaceOnUse" gradientTransform="translate(213.9 217.42) scale(0.54)">
<stop stop-color="white"/>
<stop offset="1" stop-color="#1D1D1B"/>
</radialGradient>
<linearGradient id="paint3_linear_4716_1456" x1="344.21" y1="105.6" x2="866.38" y2="311.25" gradientUnits="userSpaceOnUse">
<stop stop-color="#9E005D"/>
<stop offset="0.42" stop-color="#F51B67"/>
<stop offset="0.53" stop-color="#F53849"/>
<stop offset="0.73" stop-color="#F46917"/>
<stop offset="0.83" stop-color="#F47C03"/>
<stop offset="0.86" stop-color="#F48106"/>
<stop offset="0.9" stop-color="#F38E11"/>
<stop offset="0.94" stop-color="#F3A422"/>
<stop offset="0.98" stop-color="#F2C339"/>
<stop offset="1" stop-color="#F1D446"/>
</linearGradient>
<radialGradient id="paint4_radial_4716_1456" cx="0" cy="0" r="1" gradientUnits="userSpaceOnUse" gradientTransform="translate(752.84 216.73) rotate(90) scale(0.54 0.539992)">
<stop stop-color="white"/>
<stop offset="1" stop-color="#1D1D1B"/>
</radialGradient>
<linearGradient id="paint5_linear_4716_1456" x1="1667.74" y1="444.76" x2="2127.74" y2="625.94" gradientUnits="userSpaceOnUse">
<stop stop-color="#9E005D"/>
<stop offset="0.42" stop-color="#F51B67"/>
<stop offset="0.53" stop-color="#F53849"/>
<stop offset="0.73" stop-color="#F46917"/>
<stop offset="0.83" stop-color="#F47C03"/>
<stop offset="0.86" stop-color="#F48106"/>
<stop offset="0.9" stop-color="#F38E11"/>
<stop offset="0.94" stop-color="#F3A422"/>
<stop offset="0.98" stop-color="#F2C339"/>
<stop offset="1" stop-color="#F1D446"/>
</linearGradient>
</defs>
</svg>
