<svg width="481" height="337" viewBox="0 0 481 337" fill="none" xmlns="http://www.w3.org/2000/svg">
<g clip-path="url(#clip0_4872_1357)">
<path d="M293.959 58.3768L294.119 58.5367C296.879 61.2967 299.849 63.8968 302.799 66.4568C305.749 69.0168 308.799 71.5067 311.939 73.8867C315.079 76.2667 318.229 78.5568 321.479 80.7368C324.729 82.9168 328.009 84.9668 331.389 86.9068C334.769 88.8468 338.169 90.6468 341.659 92.3268C345.149 94.0068 348.659 95.5368 352.269 96.9268C355.879 98.3168 359.499 99.5468 363.199 100.627C366.899 101.707 370.649 102.627 374.429 103.347C378.209 104.067 382.079 104.647 385.939 105.017C389.854 105.397 393.786 105.577 397.719 105.557C401.707 105.542 405.693 105.325 409.659 104.907C436.309 102.097 462.069 91.2268 483.779 75.6768C506.659 59.2068 520.379 33.0167 527.659 6.25674C539.909 -38.6933 528.189 -82.9533 501.009 -119.913C469.289 -163.023 478.819 -226.203 519.159 -260.223C521.029 -261.803 522.959 -263.323 524.939 -264.763C540.636 -276.239 559.211 -283.131 578.594 -284.67C597.977 -286.21 617.407 -282.337 634.719 -273.483C648.279 -266.553 657.959 -255.813 670.109 -246.963C687.516 -234.384 708.311 -227.343 729.779 -226.76C751.248 -226.177 772.394 -232.078 790.459 -243.693C817.219 -260.933 848.659 -265.423 876.459 -246.773C888.726 -238.553 898.23 -226.827 903.733 -213.125C909.236 -199.422 910.482 -184.379 907.308 -169.958C904.134 -155.537 896.687 -142.408 885.94 -132.282C875.193 -122.156 861.643 -115.504 847.059 -113.193C833.459 -111.043 819.969 -113.323 807.359 -118.663C795.059 -123.883 784.299 -131.663 771.519 -135.863C751.124 -142.472 729.15 -142.384 708.809 -135.613C684.149 -127.553 664.509 -113.183 651.139 -90.9433C643.207 -78.0403 637.779 -63.7575 635.139 -48.8432C630.669 -21.8432 639.299 7.09675 655.339 28.9467C663.439 39.9467 673.809 47.1667 683.989 55.9467C693.821 64.4337 702.385 74.2874 709.419 85.2068C737.499 128.787 738.219 186.107 711.139 230.327C710.146 231.94 709.126 233.53 708.079 235.097C698.108 249.98 685.303 262.754 670.395 272.688C655.488 282.622 638.769 289.522 621.194 292.994C603.619 296.466 585.532 296.442 567.967 292.924C550.401 289.405 533.7 282.46 518.819 272.487C506.169 264.027 495.539 253.307 482.289 245.597C472.263 239.715 461.601 234.991 450.509 231.517C431.754 225.718 411.952 224.117 392.509 226.827C367.901 230.442 344.427 239.57 323.839 253.527C302.519 267.867 287.619 289.527 266.959 304.667C243.93 321.498 216.993 332.185 188.689 335.719C160.384 339.252 131.646 335.516 105.186 324.863C78.7264 314.21 55.4169 296.991 37.4573 274.831C19.4976 252.671 7.4801 226.3 2.53859 198.207C-2.40292 170.114 -0.105461 141.226 9.21419 114.267C18.5338 87.3087 34.5684 63.1691 55.8048 44.1261C77.0413 25.0832 102.779 11.7648 130.591 5.42773C158.402 -0.909341 187.369 -0.0561457 214.759 7.90677C219.106 9.16677 223.392 10.6101 227.619 12.2368C231.846 13.8634 235.966 15.6468 239.979 17.5868C243.979 19.5268 247.909 21.6301 251.769 23.8968C255.629 26.1634 259.369 28.5668 262.989 31.1068C266.649 33.6568 270.199 36.3567 273.659 39.1667C277.119 41.9767 280.499 44.9668 283.769 48.0468C285.529 49.7068 287.299 51.4267 289.009 53.1667C290.719 54.9067 292.279 56.6768 293.959 58.3768Z" fill="url(#paint0_linear_4872_1357)"/>
</g>
<defs>
<linearGradient id="paint0_linear_4872_1357" x1="76.4245" y1="243.304" x2="902.902" y2="-136.549" gradientUnits="userSpaceOnUse">
<stop stop-color="#9E005D"/>
<stop offset="0.42" stop-color="#F51B67"/>
<stop offset="0.53" stop-color="#F53849"/>
<stop offset="0.73" stop-color="#F46917"/>
<stop offset="0.83" stop-color="#F47C03"/>
<stop offset="0.86" stop-color="#F48106"/>
<stop offset="0.9" stop-color="#F38E11"/>
<stop offset="0.94" stop-color="#F3A422"/>
<stop offset="0.98" stop-color="#F2C339"/>
<stop offset="1" stop-color="#F1D446"/>
</linearGradient>
<clipPath id="clip0_4872_1357">
<rect width="481" height="337" fill="white"/>
</clipPath>
</defs>
</svg>
