<svg width="2098" height="563" viewBox="0 0 2098 563" fill="none" xmlns="http://www.w3.org/2000/svg">
<path d="M1643 324.4C1646.56 324.62 1650.12 324.99 1653.67 325.3C1658.6 339.08 1654.82 363.59 1654.81 378.58L1654.69 507.38C1651.02 507.19 1647.44 506.86 1643.8 506.54C1639.36 493.34 1642.87 468.26 1642.88 453.74L1643 324.4Z" fill="white"/>
<path d="M1480.82 324.78C1500.91 324.75 1602.42 322.54 1610.49 326.96L1610.36 331.18C1599.79 336.53 1565.93 334.09 1551.06 333.95V472.77C1551.27 482 1555.25 498.6 1549.46 506.8L1542.8 507.07C1537.63 503.38 1540.52 352.53 1540.54 333.95C1523.3 333.95 1497.41 335.94 1481.32 333.26L1480.82 324.78Z" fill="white"/>
<path d="M1424.54 321.78C1429.13 322.07 1433.89 322.42 1438.33 323.17C1447.63 324.75 1461.25 330.58 1464.5 335.93C1466.4 339.06 1464.57 340.37 1462.15 343.07C1452.42 339.33 1444.32 334.12 1433.05 331.81C1425.84 330.33 1418.32 330.04 1411.27 332C1398.06 335.66 1389.13 345.77 1384.4 353.18C1362.92 386.85 1362.7 451.42 1390.72 483.82C1396.4 490.38 1404.46 497.24 1417.53 499.48C1428.83 501.42 1436.96 499.85 1447.18 497.03C1451.45 494.52 1456.52 490.63 1462.73 490.06L1465.63 491.57C1465.49 494.24 1463.72 496.1 1461.19 498.29C1454.27 504.3 1443.21 508.83 1430.57 510.06C1421.06 510.99 1411.76 509.59 1403.96 506.46C1380.29 496.96 1370.16 477.32 1365.07 462.01C1354.12 429.01 1351.61 362.45 1387.07 334.72C1397.3 326.72 1407.45 323.38 1424.54 321.78Z" fill="white"/>
<path d="M1906.22 59.4551C1912.92 59.7061 1919.33 60.001 1925.52 61.595C1938.73 64.995 1948.22 71.398 1953.33 78.933C1984.55 124.887 1911.19 203.17 1877.67 245.87C1894.18 245.86 1952.87 243.92 1964.35 246.9C1964.92 249.69 1964.53 250.04 1962.32 252.59C1948.57 257.99 1918.38 255.1 1902 254.99C1890.76 255.13 1877.92 256.04 1866.97 254.6C1860.41 241.77 1951.84 147 1948.47 104.351C1947.71 94.7881 1944.63 80.1551 1930.94 73.7311C1923.66 70.3121 1914.55 69.2091 1905.24 69.7491C1890.37 70.6111 1882.55 77.324 1873.9 83.345C1870 80.838 1869.14 79.312 1869.23 76.011C1879.68 67.221 1887.79 62.2431 1906.22 59.4551Z" fill="white"/>
<path d="M1646.22 59.4731C1652.13 59.6801 1657.69 60.0281 1663.23 61.3041C1675.97 64.2411 1686.15 70.5571 1691.48 77.5961C1726.18 123.387 1648.97 202.35 1617.1 245.87C1637.91 245.99 1676.77 243.12 1695.15 246.52C1700.26 247.46 1701.66 248.31 1704.11 250.92L1702.7 252.92C1686.28 257.46 1656.26 255.13 1638 254.99C1627.32 255.07 1616.79 255.23 1606.16 254.53C1603.49 251.55 1605.38 247.42 1606.94 244.35C1611.91 234.62 1620.82 224.89 1627.84 215.55C1648.9 187.51 1673.87 157.52 1684.15 127.471C1690.14 109.97 1690.09 89.3111 1670.7 74.2381C1666.56 71.0201 1661.02 68.3271 1653.6 68.1581C1637.32 67.7871 1622.8 77.3401 1612.15 83.0771C1609.93 80.4941 1608.58 78.7711 1608.09 75.8591C1619.43 67.0211 1626.82 61.9111 1646.22 59.4731Z" fill="white"/>
<path d="M1686.08 324.35L1697.84 325.2C1707.85 340.65 1712.16 362.93 1718 379.42C1731.41 417.3 1746.83 455.34 1756.47 493.59C1765.42 456.73 1780.65 420.02 1793.59 383.54C1800.27 364.71 1803.83 343.7 1814.66 325.63C1818.91 324.95 1819.75 324.94 1824.05 325.51C1826.94 329.31 1822.17 336.3 1820.49 340.3C1804.48 379.68 1791.91 419.8 1777.69 459.42C1771.29 477.23 1766.38 495.86 1756.64 513.18C1744.03 496.38 1739.6 472.12 1733.07 453.96C1717.53 410.75 1702.58 367.45 1686.08 324.35Z" fill="white"/>
<path d="M980.06 321.78C986.86 322.19 993.5 322.65 999.85 324.15C1010.72 326.72 1026.82 331.87 1030.86 338.47C1032.74 341.54 1033.2 343.35 1030.97 346.26C1027.36 345.55 1028.15 345.96 1025.78 344.74C1022.65 343.14 1019.69 341.44 1016.5 339.87C1006.03 334.72 993.39 330.13 978.83 331.04C969.19 331.64 960.99 334.74 955.14 338.99C945.97 345.66 942.27 354.69 941.59 362.97C937.84 408.76 1022.74 406.07 1034.43 450.13C1038.64 465.98 1035.39 486.51 1017.22 499.44C1007.1 506.64 996.48 509.06 980.69 510.22C972.88 509.42 965.86 508.5 958.84 506.34C948.93 503.29 931.28 495.93 928.63 489.33C927.58 486.7 927.44 485.3 930 482.94L934.39 483.29C939.44 487.97 944.66 491.13 952.63 494.31C962.46 498.24 975.72 501.6 988.06 500.1C999.05 498.76 1007.81 494.29 1013.78 489.1C1021.63 482.27 1023.91 474.86 1024.88 466.92C1030.34 422.45 947.76 419.97 933.04 382.37C927.24 367.56 930.51 346.03 945.94 333.31C954.68 326.1 965.24 323.32 980.06 321.78Z" fill="white"/>
<path d="M2036.09 321.78C2039.23 321.973 2042.36 322.207 2045.47 322.48C2064.92 324.28 2077.38 331.05 2088.54 339.74C2088.96 342.27 2087.38 343.41 2085.08 345.53L2081.56 345.28C2077.93 342.86 2074.28 340.35 2069.93 338.32C2060.27 333.84 2046.35 329.95 2033.5 330.98C2024.23 331.73 2016.58 334.87 2011.1 339.04C2002.37 345.7 1999.14 354.12 1998.16 362.22C1992.74 406.73 2079.72 408.58 2090.75 449.08C2095.26 465.66 2091.33 486.46 2072.57 499.92C2062.78 506.94 2051.99 509.12 2036.69 510.21C2027 509.31 2019.16 507.89 2010.81 504.91C1998.64 500.56 1986.26 494.12 1983.15 485.9L1985.84 484.45C1996.53 486.42 2004.7 492.78 2014.34 496.2C2023.25 499.37 2035.39 501.46 2045.88 499.91C2055.6 498.47 2064.39 494.44 2069.39 489.57C2076.85 482.29 2081.06 472.89 2081.74 464.58C2085.02 424.72 2003.12 417.6 1989.04 381.81C1983.32 367.27 1986.64 345.73 2001.93 333.3C2010.74 326.14 2021.28 323.35 2036.09 321.78Z" fill="white"/>
<path d="M650.54 324.78C670.65 324.72 741.18 322.04 753.82 327.3C753.25 330.19 753.26 330.49 749.94 332.68C739.19 334.97 677.49 333.32 661.1 333.34V407.2C686.62 407.05 715.87 405.23 740.41 409.68L741.91 412.61L744.77 411.51L738.04 413.43L740.14 413.4C715.59 417.84 686.64 416.07 661.1 415.94V498.46C680.47 498.64 741.36 495.13 754.04 501.37C755.4 503.98 756.07 503.88 754.33 506.6C720.08 507.92 684.91 507.06 650.55 507.08L650.54 324.78Z" fill="white"/>
<path d="M1226.54 324.78C1243.47 324.93 1315.01 322.76 1324.95 326.06C1329.16 327.45 1329.07 328.84 1329.78 331.26L1327.46 332.97C1297.48 333.73 1267.21 333.32 1237.19 333.34V407.2C1262.4 407.2 1292.98 404.93 1316.85 409.81L1317.26 412.73L1320.75 411.51L1314 413.43L1316.24 413.38C1291.71 417.85 1262.73 416.07 1237.19 415.94V498.46C1267.64 498.43 1298.3 497.97 1328.73 498.49C1331.89 500.95 1330.76 502.63 1330.61 505.58C1323.94 508.98 1239.78 507.09 1226.55 507.08L1226.54 324.78Z" fill="white"/>
<path d="M1123 62.5229H1160.93V254.99H1123V62.5229Z" fill="white"/>
<path d="M1887.36 323.77C1890.07 324.24 1892.11 324.87 1894.58 325.63C1902.11 334.62 1908.36 361.29 1912.52 372.66C1928.91 417.44 1946.22 462.24 1960.66 507.23L1959.21 508.27L1955.21 508.29C1940.98 500.62 1934.77 466.1 1929.73 453.89H1852.13C1849.16 464.98 1840.48 496.52 1832.77 505.54C1828.23 507.22 1828.44 507.33 1823.12 506.89C1820.73 502.58 1880.18 344.74 1887.36 323.77ZM1891.69 341.33C1885.36 355.11 1881.83 369.5 1877.01 383.49C1869.94 404.04 1861.95 424.58 1855.7 445.21H1926.76L1891.69 341.33Z" fill="white"/>
<path d="M2052.93 62.4219C2057.66 62.4019 2061.53 62.5729 2066.14 63.1939C2070.22 76.6699 2067.34 92.6699 2067.31 106.451L2067.15 196.3C2073.97 196.15 2085.11 195.21 2091.24 197.1C2095.61 198.44 2096.15 199.15 2097.02 201.67C2095.65 202.65 2094.77 203.39 2092.93 204.18C2086.97 206.74 2074.28 205.63 2067.15 205.51C2067.24 221.43 2069.89 238.88 2064.9 254.58L2060.66 256.02L2062.53 256.96C2052.81 251.07 2054.99 241.58 2055.34 234.16V205.51C2028.75 205.58 2002.07 205.92 1975.5 205.15L1975.95 204.34L1973.31 204.63C1975.57 187.9 1990.78 168.95 2000.11 152.99L2052.93 62.4219ZM2054.45 79.887C2045.46 94.475 1986.66 189.72 1987.74 196.3H2055.34L2055.56 114.736C2055.57 104.091 2058.59 90.129 2054.45 79.887Z" fill="white"/>
<path d="M548.05 59.5831C552.943 59.5791 557.81 59.7761 562.65 60.1741C584.88 61.9691 598.02 71.5231 610.83 80.8641L600.46 98.4001C597.49 96.3231 594.5 94.2401 591.27 92.2831C581.7 86.4711 569.57 81.2741 554.86 81.2911C546.87 81.3001 539.56 82.9511 534.12 86.2841C523.93 92.5271 520.69 106.97 521.95 115.211C525.08 135.63 555.98 141.06 579.85 152.48C602.41 163.27 611.42 178.63 614.06 194.73C616.88 211.92 612.99 233.55 592.09 247.05C580.07 254.82 567.37 257.23 549.58 257.84C522.89 255.2 507.89 247.27 491.34 235.99L501.97 218.31C509.09 223.1 516.61 227.65 526.25 230.84C536.9 234.37 547.21 237.63 559.81 235.51C570.23 233.75 577.1 229.51 581.81 224.12C586.05 219.28 587.61 213.03 588.38 207.66C593.54 171.88 520.19 170 501.41 137.42C491.04 119.437 493.59 92.6541 509.99 75.9891C518.9 66.9341 530.51 62.1971 548.05 59.5831Z" fill="white"/>
<path d="M1080.54 324.78C1105.18 324.78 1143.42 321.18 1162.96 331.18C1182.74 341.3 1188.01 361.03 1188.8 375.42C1189.66 391.36 1185.04 412.3 1164.05 424.03C1146.29 433.95 1114.04 430.93 1091.06 430.71V451.38C1091.15 460.94 1094.55 499.03 1090.1 505.28C1088.96 506.88 1087.19 506.83 1084.6 507.45L1081.48 506.59C1077.14 494.25 1080.51 467.17 1080.51 453.4L1080.54 324.78ZM1091.06 333.34V422.37C1110.64 422.6 1140.69 425.25 1156.33 417.11C1158.35 416.07 1160.24 414.95 1162.13 413.83C1179.74 397.37 1181.38 374.73 1173.42 356.29C1170.23 348.92 1164.16 340.94 1152.18 336.8C1136.04 331.22 1109.56 333.15 1091.06 333.34Z" fill="white"/>
<path d="M503.7 324.78C529.3 324.79 568.36 320.91 588.02 331.9C607.34 342.69 612.16 362.1 612.62 376.82C613.12 392.47 608.48 412.82 587.56 424.2C569.72 433.91 537.88 430.92 515.03 430.72V452.51C514.92 461.78 517.89 496.28 514.72 503.06C513.56 505.56 512.71 505.87 509.08 507.18L505.24 506.41C500.62 500.33 503.72 345.59 503.7 324.78ZM515.03 333.34V422.37C536.79 422.6 565.3 425.42 582.17 416.03C583.417 415.33 584.643 414.617 585.85 413.89C603.13 397.71 605.6 375.06 597.53 356.85C594.18 349.28 588.49 341.14 576.14 336.84C560.03 331.22 533.52 333.15 515.03 333.34Z" fill="white"/>
<path d="M793 324.81C814.99 324.63 845.27 322.49 865.54 327.24C878.63 330.32 886.91 336.97 891.97 344.18C904.11 361.5 903.33 388.61 889.04 405.46C881.47 414.39 872.79 419.2 856.21 422.36C863.81 437.41 904.62 498.06 902.89 506.72L899.74 507.57C899.11 507.45 898.44 507.36 897.84 507.2C884.1 503.53 874.83 476.19 870.14 467.52C860.58 453.07 853.56 437.84 844.78 423.19C831.38 422.78 817.69 423.06 804.25 423.01C804.22 436.15 808.46 496.74 801.83 504.53C799.97 506.71 800.09 506.93 795.86 507.69C789.36 500.29 792.98 346.67 793 324.81ZM804.25 333.56V414.11C827.23 414.35 854.61 416.9 872.59 407.19C873.76 406.56 874.88 405.9 875.95 405.21C890.71 390.92 892.8 371.2 885.83 355.24C882.53 347.7 876.03 340.33 863.92 336.14C849.63 331.19 820.79 333.4 804.25 333.56Z" fill="white"/>
<path d="M1023.95 59.5691C1028.07 59.5441 1032.13 59.7151 1036.22 60.0171C1060.42 61.8061 1074.05 71.4871 1087.96 81.6961C1082.48 89.3941 1077.77 97.2971 1072.83 105.11C1070.95 103.877 1069.05 102.656 1067.12 101.445C1059.14 96.4331 1046.11 89.3801 1033.37 89.3111C1026.33 89.2741 1019.99 90.4791 1015 93.3521C1005.61 98.7551 1003.88 108.776 1005.06 115.884C1007.95 133.262 1036.93 138.95 1057.69 149.06C1080.98 160.41 1089.47 176.1 1091.42 192.86C1093.57 211.3 1090.17 232.84 1066.93 247.11C1053.54 255.32 1040.17 257.58 1020.98 257.82C994.76 255.04 979.35 247.1 962.86 236.01L978.33 212.23C984.27 216.04 990.12 219.94 997.71 222.75C1007.33 226.32 1019.74 228.29 1031.15 226.72C1031.69 226.647 1032.23 226.567 1032.76 226.48C1033.29 226.387 1033.82 226.29 1034.34 226.19C1034.86 226.083 1035.38 225.97 1035.89 225.85C1036.4 225.73 1036.91 225.603 1037.41 225.47C1037.91 225.33 1038.4 225.187 1038.89 225.04C1039.38 224.887 1039.85 224.727 1040.32 224.56C1040.79 224.4 1041.26 224.23 1041.71 224.05C1042.16 223.87 1042.61 223.683 1043.05 223.49C1043.48 223.297 1043.91 223.1 1044.33 222.9C1044.75 222.693 1045.16 222.48 1045.55 222.26C1045.95 222.047 1046.34 221.823 1046.72 221.59C1047.09 221.363 1047.46 221.13 1047.81 220.89C1048.16 220.65 1048.51 220.403 1048.84 220.15C1049.17 219.897 1049.49 219.64 1049.79 219.38C1050.1 219.12 1050.39 218.857 1050.68 218.59C1050.96 218.323 1051.23 218.05 1051.48 217.77C1055.96 212.91 1056.27 207.17 1054.95 201.86C1047.42 171.48 989.95 174.71 972.77 140.33C963.05 120.896 964.84 93.2511 983.93 75.7211C993.76 66.6861 1005.8 61.9121 1023.95 59.5691Z" fill="white"/>
<path d="M822.76 62.5229H943.27V91.9489H860.51V140.72H931.09V169.69H860.51V218.13C860.31 220.91 860.25 222.65 862.26 225.23C888.63 227.12 918.25 225.63 944.99 225.57V254.99H822.76V62.5229Z" fill="white"/>
<path d="M1270.29 59.5791C1299.91 60.1451 1315.05 67.0271 1334.53 78.6081L1322.33 102.543C1309.91 96.2372 1294.15 88.9551 1276.34 89.4691C1266.65 89.7491 1258.76 92.5112 1252.68 96.6552C1226.66 114.404 1230.58 164.35 1233.75 186.5C1235.58 199.32 1239.02 217.59 1258.12 226.14C1263.22 228.42 1269.12 229.59 1275.71 228.85C1286.17 227.66 1293.7 222.6 1299.06 217.81V182.16H1269V156.03H1337C1336.79 177.11 1345.14 221.34 1327.26 238.57C1317.58 247.9 1302.19 254.4 1283.41 256.8C1267.96 258.78 1252.05 257.71 1238.88 252.54C1216.03 243.57 1206.09 225.12 1201.06 210.38C1189.49 176.52 1187.38 105.783 1223.71 76.8931C1236.57 66.6611 1248.4 61.8991 1270.29 59.5791Z" fill="white"/>
<path d="M1786.18 59.4639C1792.97 59.7689 1799.42 60.1159 1805.67 61.7649C1818.38 65.1199 1824.81 72.3159 1829.23 79.4319C1849.16 111.533 1851.31 212.71 1823.48 243.28C1815.99 251.51 1808.52 255.32 1792.91 258.11C1785.64 257.64 1778.35 257.35 1771.84 255.31C1756.41 250.48 1750.2 240.21 1745.99 231.13C1730.57 197.84 1726.53 99.1479 1758.37 70.5369C1765.63 64.0119 1773.08 61.2439 1786.18 59.4639ZM1781.4 69.1989C1759.45 78.6939 1754.05 94.4539 1750.71 109.185C1744.23 137.75 1738.64 220.46 1770.39 242.76C1774.27 245.48 1779.52 247.8 1785.81 248.31C1789.38 248.6 1793.51 248.35 1797.12 248.26C1818.35 239.15 1823.96 224.89 1827.41 210.67C1833.94 183.71 1838.45 95.9919 1810.91 75.6219C1805.63 71.7169 1800 69.6649 1791.29 69.1869C1787.97 69.0049 1784.72 69.0969 1781.4 69.1989Z" fill="white"/>
<path d="M1372.81 62.5229H1410.41L1485.78 204.03C1483.45 156.76 1480.54 109.84 1480.61 62.5229H1517.32L1517.33 254.99H1480.2C1457.03 207.95 1430.62 161.06 1404.72 114.456C1406.84 161.39 1410.87 207.99 1410.6 254.99H1372.81V62.5229Z" fill="white"/>
<path d="M649 62.5229C675.44 62.3289 713.32 59.4609 736.76 66.9309C759.65 74.2269 772.01 89.8379 778.73 103.548C797.06 140.98 795.99 203.05 761.12 237.12C757.68 239.79 754.23 242.52 750.08 244.86C724.69 259.16 681.97 255.18 649 254.99V62.5229ZM687.02 91.9489V225.71C700.18 225.79 715.36 226.66 725.89 221.28C729.08 219.65 731.93 217.75 734.75 215.91C755.63 191.4 758.14 137.66 742.7 111.911C738.57 105.007 730.84 96.6949 718.34 93.5779C708.98 91.2429 697.06 91.8169 687.02 91.9489Z" fill="white"/>
<path d="M229.49 0.736991C231.23 0.666991 232.97 0.616347 234.71 0.585014C245.05 0.426014 252.87 2.41101 260.14 6.57201C275.9 15.586 280.73 31.641 280.39 43.965C280.01 58.021 274.73 73.768 253.24 82.434C243.71 86.279 232.82 89.694 224.64 94.464C200.91 108.291 196.03 131.641 197 150.03C197.98 168.55 211.29 201.74 248.42 206.87C272.77 210.23 291.78 204.06 312.57 215.54C344.26 233.04 355.32 261.89 355.46 286.02C355.61 312.48 342.57 349.88 296.67 363.36C266.45 372.23 248.46 367.12 227.61 386.59C174.06 436.56 224.56 507.99 147.18 550.09C131.63 558.55 113.65 562.31 92.2398 562.03C89.0398 561.61 85.8631 561.14 82.7098 560.62C58.8198 556.58 41.0298 544.75 29.3598 532.83C-3.46318 499.28 -6.24019 454.03 12.6598 417.8C23.9298 396.2 47.2299 370.48 91.0299 366.6C109.74 364.95 128.5 365.12 145.41 359.64C168.02 352.33 178.95 336.34 185.84 322.88C203.02 289.33 199.52 236.29 145.13 213.09C122.11 203.28 106.78 206.07 90.4498 188.89C70.7198 168.14 68.9398 140.29 80.5798 117.989C88.5998 102.612 100.08 91.252 128.66 86.215C137.86 84.595 147.8 83.307 156.17 80.581C190.89 69.267 190.92 43.098 199.9 23.823C204.67 13.582 213.18 6.07599 229.49 0.736991Z" fill="white"/>
</svg>
